<svg xmlns="http://www.w3.org/2000/svg" aria-hidden="true" focusable="false" viewBox="0 0 900 1410"><defs><style>.cls-1{opacity:0.3;}</style></defs><title>DingAsset 1</title><g id="Layer_2" data-name="Layer 2"><g id="Illustration"><g class="cls-1"><path d="M431.86,173.69a86.85,86.85,0,1,0-87-86.85A87,87,0,0,0,431.86,173.69Zm0-161.34a74.5,74.5,0,1,1-74.59,74.49A74.62,74.62,0,0,1,431.86,12.35Z"/><path d="M745.43,226.16,578.64,177,529.4,343.56l166.79,49.17Zm-200.67,109L587,192.32,730.07,234.5,687.84,377.39Z"/><path d="M400.44,283.33l-99.3,180.32H499.75Zm0,25.62,78.4,142.35H322.05Z"/><path d="M495.13,589l29,71.24,51.69-21,21,51.63L668.1,662l-21-51.63,51.69-21-29-71.23-51.69,21-21-51.63-71.33,28.92,21,51.63Zm46.8-65.79,48.42-19.64,21,51.63,51.69-21,19.67,48.36-51.7,21,21,51.63-48.42,19.63-21-51.63-51.69,21-19.66-48.35,51.69-21Z"/><path d="M608.92,1334.14H401a6.18,6.18,0,1,0,0,12.35H608.92a6.18,6.18,0,1,0,0-12.35Z"/><path d="M894,776.22A27.25,27.25,0,0,0,872.61,766H185.23l-25-113.89A48.85,48.85,0,0,0,112.74,614H6.18a6.18,6.18,0,1,0,0,12.35H112.74a36.43,36.43,0,0,1,35.37,28.41L279,1249.88a6.19,6.19,0,0,0,6,4.85,6.2,6.2,0,0,0,6.05-7.5l-25.37-115.37H803.25a27.22,27.22,0,0,0,26.72-21.4l69.37-311.2A27.16,27.16,0,0,0,894,776.22ZM415,1119.51H263l-24.2-110.06H415Zm0-116.23H237.41L212.71,891H415Zm0-118.49H211.35L187.94,778.33H415ZM652.4,1119.51H421.14V1009.45H652.4Zm0-116.23H421.14V891H652.4Zm0-118.49H421.14V778.33H652.4Zm165.5,223a14.92,14.92,0,0,1-14.65,11.74H658.58V1009.45H839.82l.57-2.56Zm23.29-104.49H658.58V891H866.23Zm46.08-206.7-19.66,88.21h-209V778.33h214a15,15,0,0,1,14.66,18.25Z"/><path d="M703.42,1270.64a69.68,69.68,0,1,0,69.77,69.68A69.81,69.81,0,0,0,703.42,1270.64Zm0,127a57.33,57.33,0,1,1,57.41-57.33A57.43,57.43,0,0,1,703.42,1397.65Z"/><path d="M306.54,1270.64a69.68,69.68,0,1,0,69.77,69.68A69.81,69.81,0,0,0,306.54,1270.64Zm0,127A57.33,57.33,0,1,1,364,1340.32,57.43,57.43,0,0,1,306.54,1397.65Z"/></g></g></g></svg>