<?xml version="1.0" encoding="UTF-8"?>
<!-- Created with Inkscape (http://www.inkscape.org/) -->
<svg width="354.63mm" height="197.76mm" version="1.1" viewBox="0 0 354.63 197.76" xmlns="http://www.w3.org/2000/svg">
 <g transform="translate(72.496 -49.742)">
  <g stroke="#d99414" stroke-width=".8">
   <path d="m129.01 50.145c-0.58319-0.01718-1.178 0.02717-1.7782 0.13746-3.6804 0.67635-5.8056 4.1516-4.5036 7.3649 0.64635 1.5954 2.0248 2.6346 3.7471 2.6479-0.42206-0.24782-0.67481-0.38304-0.91415-0.53898-2.8911-1.8838-2.7596-5.7052 0.26613-7.3437 1.3355-0.72326 2.7636-0.87655 4.2313-0.47904 4.3201 1.1702 6.5527 5.9097 4.8938 10.41-1.2826 3.4798-3.7552 5.9246-6.9231 7.6936-6.2852 3.51-13.095 3.9279-20.04 3.1244-5.8745-0.67979-11.481-2.479-17.018-4.4958-1.7227-0.62746-3.4684-1.1931-5.2033-1.787 0.24858 0.20546 0.47359 0.46728 0.73226 0.64906-0.26108-0.18237-0.4958-0.44682-0.786-0.66301-0.05407-0.01376-0.16588-0.01292-0.16588-0.01292-0.33274-0.10879-0.67005-0.24521-1.0036-0.35863 0.32591 0.10181 0.65226 0.20358 0.96997 0.28319-0.90588-0.37994-1.7781-0.68454-2.6386-0.89142 0.14295 0.06155 0.28303 0.10554 0.4253 0.16226-0.14349-0.05629-0.28371-0.09253-0.42788-0.15296-0.01191-0.07208-0.0024-0.09208 0.0011-0.09664h5.29e-4v-5.29e-4c-0.0697-0.01698-0.15309-0.04478-0.23668-0.07235 0.07963 0.01969 0.15086 0.0239 0.21601 0.01188-0.18836-0.0991-0.35556-0.13752-0.47594-0.11266 0.04064 0.02068 0.07784 0.0369 0.11472 0.05219-0.05559-0.02125-0.10234-0.03592-0.17105-0.06718-0.10306-0.07874-0.21962-0.07803-0.21962-0.07803-1.1485-0.37796-2.2969-0.75586-3.4618-1.2227-0.01363-0.07287-0.0053-0.09228-0.0021-0.09663h5.3e-4v-5.29e-4c-1.4659-0.43216-2.9348-0.85339-4.3971-1.2976 1.4621 0.44402 2.9296 0.86144 4.363 1.217-2.1661-0.86696-4.2766-1.7186-6.4337-2.4283-8.6228-2.8369-17.368-4.9806-26.559-4.1837-4.8649 0.42175-9.5889 1.4768-13.94 3.7775-1.3754 0.72734-2.5934 1.7519-3.7874 2.637 0.18174-0.09571 0.32472-0.18208 0.48989-0.28215-0.15741 0.09665-0.30767 0.19375-0.47904 0.2868-0.05579 5e-3 -0.07354-0.0036-0.07906-0.0098-1.33e-4 -1.46e-4 -7.94e-4 -0.0013-0.0011-0.0016l-5.29e-4 -5.3e-4v-5.29e-4l-5.29e-4 -1e-3v-0.001058l-5.29e-4 -5.29e-4v-0.001059c-0.1602 0.14829-0.34859 0.29962-0.5147 0.44855 0.15392-0.14698 0.3013-0.29334 0.42375-0.43667-0.47656 0.36396-0.8622 0.71588-1.1565 1.063 0.11278-0.08553 0.20338-0.16986 0.30592-0.25476-0.1038 0.08676-0.18448 0.17122-0.29662 0.2589-0.05406 0.0059-0.07248-5.55e-4 -0.07855-0.0057-2.35e-4 -2.36e-4 -0.0013-0.0013-0.0016-0.0016l-5.29e-4 -5.29e-4v-5.29e-4l-5.3e-4 -5.29e-4v-0.001059l-5.29e-4 -5.29e-4c-0.05326 0.07456-0.10647 0.14917-0.21135 0.25115-0.04522 0.02401-0.05427 8e-3 -0.05581 0.0036l-5.3e-4 -5.29e-4c-1.361 1.6608-2.722 3.3215-4.1569 5.0178-0.05076 0.02439-0.07007 0.02291-0.077 0.01964-2.65e-4 -1.54e-4 -0.0019-8.73e-4 -0.0021-1e-3h-5.29e-4l-5.29e-4 -5.29e-4 -5.3e-4 -5.29e-4v-5.29e-4h-5.29e-4c-0.26694 0.55351-0.53406 1.1067-0.83561 1.6919 0.28416-0.56557 0.53663-1.1188 0.75499-1.6578-0.48424 0.87828-0.89096 1.7232-1.2268 2.5435-0.0254 0.04613-0.05101 0.09235-0.077 0.13901-0.14495 0.19519-0.15776 0.26913-0.17053 0.34313 0.01725 0.36154 0.0347 0.72316 0.06046 1.263-0.02577-0.53981-0.04357-0.90083-0.12764-1.2144-0.26847 0.70824-0.46965 1.3679-0.67076 2.0278 0.12384 0.06744 0.24771 0.13463 0.37155 0.20205 1.1377-0.87688 2.2753-1.7533 3.329-2.6128 0.0495-0.02604 0.0996-0.0523 0.14986-0.07855 0.23347-0.10012 0.28263-0.14716 0.33176-0.1943 0.21079-0.18474 0.4215-0.36941 0.70383-0.56224 0.04692-0.0053 0.06247 0.0011 0.0677 0.0062 1e-4 1.18e-4 7.93e-4 0.0012 0.0011 0.0016l0.001058 0.001058v5.29e-4l5.29e-4 5.29e-4v0.001588c0.08312-0.05118 0.16626-0.10264 0.27079-0.1602-0.08819 0.05493-0.15433 0.10557-0.1974 0.15451 0.19797-0.09753 0.33494-0.19044 0.41754-0.2682 0.02611-0.01275 0.05348-0.02576 0.08217-0.03927 0.12454-0.03704 0.19585-0.13901 0.19585-0.13901 0.74266-0.46585 1.4856-0.93167 2.3167-1.4102 0.06072-0.0087 0.08005-0.0028 0.0863 0.0016h5.3e-4l5.29e-4 5.29e-4c5.29e-4 2.12e-4 7.93e-4 4.24e-4 0.0011 5.3e-4v5.29e-4l0.0011 1e-3v5.29e-4l5.3e-4 5.29e-4c0.90434-0.49329 1.7725-1.0826 2.7042-1.5028-0.92985 0.41995-1.7861 1.0083-2.605 1.494 3.2702-1.2361 6.4469-2.464 9.557-3.7347 0.12878-0.03617 0.25793-0.07229 0.38757-0.10852 0.30842-0.01 0.43823-0.07202 0.56792-0.13436 0.06464-0.02818 0.12909-0.05666 0.21291-0.07906-0.06604 0.02809-0.11934 0.06686-0.15658 0.11576 0.15971-0.01717 0.26912-0.06702 0.34572-0.14986 0.0374-0.0041 0.07843-0.0074 0.12299-0.0093 0.27442-0.01789 0.40412-0.07952 0.53382-0.14108 0.1037-0.03353 0.2071-0.06708 0.3328-0.09353-0.10507 0.03285-0.1937 0.07646-0.26251 0.13022 0.23843-0.02477 0.41564-0.08137 0.54984-0.17157 0.04402-0.0037 0.09089-0.0064 0.14056-0.0083 0.29432-0.0065 0.42924-0.06424 0.56431-0.12196 0.1028-0.03386 0.20596-0.06746 0.33073-0.09405-0.10437 0.03383-0.1925 0.07819-0.26096 0.13436 0.23513-0.02474 0.41079-0.08387 0.54363-0.1757 0.04455-0.0038 0.09169-0.0065 0.14211-0.0083 0.29467-0.0017 0.4307-0.05621 0.56638-0.11059 0.14784-0.03651 0.29548-0.07305 0.46767-0.10129-0.14976 0.03495-0.28 0.08158-0.38758 0.13849 0.323-0.02685 0.57641-0.08618 0.77876-0.1819 0.04928-3e-3 0.10071-0.0052 0.15451-0.0067 0.30546 4e-3 0.44265-0.04917 0.57981-0.10232 0.49625-0.08135 0.99264-0.15619 1.4883-0.25425-0.46651 0.10122-0.93639 0.20499-1.3891 0.29611 5.0176-0.63378 9.9409-0.67768 14.852 0.05374 3.389 0.50477 6.76 1.1276 10.124 1.6097-0.1298-0.08263-0.26106-0.14648-0.39119-0.21652 0.16735 0.0856 0.30068 0.13648 0.49144 0.24598 2.0083 0.63185 3.9009 1.1461 5.8797 1.6216 0.37052-0.05304 0.69903-0.15289 0.97772-0.11472-0.27765-0.03751-0.59735 0.06747-0.90175 0.16278 6.6429 2.1013 13.276 4.1845 19.955 6.1118 6.9969 2.019 14.118 3.0853 21.43 2.2381 6.5381-0.7575 12.445-2.9509 17.063-7.8155 2.9729-3.1319 4.686-6.8487 3.9925-11.3-0.70821-4.5455-4.2161-7.6747-8.2986-7.7948zm30.416 2.5022c-2.6564 0.12738-4.8141 2.0662-4.9284 4.5992-0.0379 0.84005 0.3317 1.6987 0.51522 2.5487 0.13443-0.02412 0.26918-0.04822 0.40359-0.07235-0.47786-2.119 0.0413-3.8992 1.926-5.0571 1.775-1.0905 3.69-0.92554 5.1754 0.39584 1.0617 0.94462 1.9781 2.2943 2.421 3.6406 0.86831 2.6392-0.0892 5.1149-1.4175 7.4326-2.1913 3.8232-5.5062 6.4901-9.1736 8.7488-1.8672 1.1501-3.8572 2.1016-5.7154 3.175 0.74578-0.24194 1.443-0.481 2.1084-0.77721-0.66611 0.2966-1.3706 0.53998-2.1937 0.82992-8.2555 3.2038-16.596 5.2515-25.337 5.3227-3.3856 0.02755-6.783 0.0046-10.158-0.23875-8.795-0.63421-17.255-2.9013-25.63-5.5268-0.4164-0.13053-0.87458-0.12831-1.2588-0.12196-0.0398-0.01273-0.07953-0.02553-0.11937-0.03824-0.31136-0.2111-0.47642-0.36051-0.66869-0.41703-2.8932-0.8504-5.7898-1.689-8.7566-2.5265-0.16365 0.0059-0.25895 0.0085-0.35295 0.01085-0.0071-0.0051-0.0141-0.01038-0.02119-0.0155 0.11252 0.01308 0.20794 0.01087 0.33176-0.06925-2.338-0.83804-4.6752-1.7097-7.0761-2.3394-9.6851-2.5401-19.475-3.8923-29.48-2.2164-3.8714 0.64857-7.6384 1.6719-11.196 3.3786-0.65397 0.31374-1.2931 0.59674-0.48628 1.4025 2.7591 2.7554 4.5542 6.1011 6.0327 9.6666 3.0202 7.2837 4.0718 14.766 2.7161 22.59-0.51708 2.984-0.25437 5.9753 1.1813 8.7545 2.0381 3.9452 5.0979 7.0359 8.339 9.973 1.3365 1.2112 2.6891 2.4044 4.0406 3.5988 0.98608 0.87122 1.0333 1.8389 0.13488 2.7352-0.80156 0.79967-1.689 1.5363-2.6267 2.1704-1.1275 0.76239-2.3682 1.3548-3.5238 2.0784-1.8813 1.178-2.4373 3.0072-1.5234 5.0204 0.34377 0.75734 0.88796 1.4277 1.1942 2.1962 0.1592 0.39941 0.17231 1.2251-0.04289 1.3498-2.8043 1.6245-5.4316 3.6868-8.7555 4.1631-1.5326 0.21959-3.1091 0.13717-4.6653 0.19172 0.02148 0.0574 0.0522 0.1698 0.07596 0.24081-0.03496-0.0882-0.08063-0.1634-0.154-0.23461 0.01868 0.17888 0.11545 0.35149 0.21756 0.45217-0.0058-0.0271-0.01244-0.0498-0.0186-0.0744 0.01775 0.0599 0.02814 0.0746 0.04961 0.15658 1.8104 0.64773 3.5781 1.2216 5.3852 1.6113 1.6607 0.35809 3.4177 0.33689 5.0354 0.81184 1.9536 0.57356 2.117 1.7684 0.63665 3.1476-0.28723 0.26763-0.66991 0.44617-0.91467 0.74311-0.40143 0.4871-0.72565 1.0374-1.0826 1.5611 0.0087-6e-3 0.02056-0.0128 0.03101-0.0191-0.0173 0.0107-0.03418 0.0216-0.05219 0.0331-0.0209 0.0137-0.01913 0.0636-0.01913 0.0636-0.1601 0.62111-0.31985 1.2424-0.5426 2.0598-0.04969 0.56642-0.03677 0.93631-0.02376 1.3064 0.3478 2.2118 0.83181 4.4132 1.0346 6.6363-0.20284-2.223-0.68918-4.4203-1.0816-6.5515 0.24554 1.9444 0.56219 3.8008 0.82579 5.6643 0.59515 4.2079-1.9977 7.3283-5.9035 7.06-3.3554-0.23066-6.7114-0.73911-10.012-1.3989-3.7195-0.7434-7.4138-1.5642-11.227-1.1808-1.2776 0.12848-2.5218 0.59263-3.7812 0.90331 0 0 0.017251 0.0281 0.02585 0.0424 1.6776-0.25421 3.3448-0.71085 5.0167-0.76068-1.6721 0.0499-3.3414 0.50908-5.0839 0.82838-0.55393 0.19296-1.032 0.33267-1.5689 0.5209-0.22174 0.16518-0.38475 0.28172-0.4377 0.40049 0.57679-0.0986 1.0402-0.22074 1.511-0.29611 2.1823-0.34959 4.3565-0.82502 6.5536-0.9834-2.1969 0.15838-4.3711 0.6343-6.5536 0.98392-0.47083 0.0754-0.93425 0.19748-1.511 0.29611-0.083712-2e-3 -0.17118 4e-3 -0.23306 0.0124 0.056639-8e-3 0.12247-0.0139 0.12247-0.0139 0.16296-0.11684 0.32593-0.23376 0.53743-0.41444 0.048575-0.0639 0.028342-0.0952-0.064595-0.0915-0.45098 0.18222-0.80952 0.36094-1.0904 0.54157 0.18072 1e-3 0.28468 2.6e-4 0.44493-0.0134v5.3e-4c-0.21189 0.14492-0.41842 0.2821-0.6289 0.42271 0.19411-0.13287 0.38058-0.27483 0.57206-0.41083-0.10354 7.9e-4 -0.20711 2e-3 -0.48421 0.0346-0.22918 0.0713-0.28491 0.1106-0.34055 0.14986-0.016298 0.0176-0.037708 0.032-0.075964 0.0481 0.029538-0.0145 0.043238-0.0368 0.040309-0.0734-0.10567-0.0163-0.14174 0.0238-0.11059 0.093 0.00677-1e-3 0.012965-2e-3 0.019129-4e-3 -0.031671 0.0107-0.055695 0.0205-0.1111 0.0346-0.17778 0.0724-0.23032 0.11216-0.28215 0.15193-0.014896 0.0191-0.033208 0.0353-0.070797 0.0543 0.027297-0.0169 0.038473-0.0408 0.032557-0.0765-0.10911-9e-3 -0.14289 0.0343-0.10542 0.10232 0.00966-2e-3 0.018971-4e-3 0.027387-7e-3 -0.032374 0.0132-0.067474 0.0265-0.12506 0.045-0.18712 0.0844-0.24275 0.12643-0.29869 0.16847 0 0-0.031284 0.0198-0.082166 0.0455 0.035094-0.0209 0.071279-0.0537 0.049609-0.0708-0.10135-0.0159-0.13142 0.0232-0.094049 0.0894 0.00339-2.7e-4 0.00746-1e-3 0.012409-3e-3 -0.033475 0.0159-0.072877 0.0329-0.11576 0.0486-0.19222 0.093-0.25192 0.13768-0.31213 0.18242 0 0-0.011615 8e-3 -0.038756 0.0233 0.015716-0.0105 0.033634-0.0313 0.024289-0.0548-0.01397-0.0339-0.076999-3e-3 -0.076999-3e-3s0.020743 0.0547 0.033589 0.0631c1.085e-4 5e-5 0.00132 7.9e-4 0.00159 1e-3h0.0037041c-0.022833 0.0123-0.052411 0.0284-0.093017 0.0476-0.27548 0.16489-0.44681 0.28024-0.61805 0.39584-0.01561 0.0225-0.033935 0.0414-0.067178 0.0584 0.026009-0.0188 0.035264-0.0427 0.026871-0.078-0.10908-2e-3 -0.13968 0.042-0.099219 0.10542-0.00677 2e-3 -0.014208 4e-3 -0.021696 6e-3 -0.056896 9e-3 -0.081648 0.0501-0.081648 0.0501-0.11418 0.0915-0.22846 0.18304-0.37569 0.28473 0.12748-0.0962 0.22548-0.19123 0.29249-0.28732-0.26227 0.15319-0.44578 0.30914-0.55862 0.45889-0.029453 0.0178-0.060018 0.0357-0.091982 0.0543-0.31141 0.13321-0.47929 0.19931-0.61753 0.30438-6.0145 4.5717-9.0321 10.717-9.1803 18.191-0.18901 9.5234 3.7659 17.406 10.116 24.241 0.24153 0.25994 0.6284 0.38482 0.94878 0.57154-0.00561-7e-3 -0.016113-0.0246-0.033589-0.0729-1.3572-2.464-2.8911-4.7533-3.9708-7.2399-3.0258-6.9686-3.9299-14.141-1.3219-21.481 0.96253-2.7088 2.3577-5.1696 4.3346-7.3003 2.4636-2.6554 5.5104-4.3208 8.8108-5.5408 0.02643 7.9e-4 0.05269 1e-3 0.07958 2e-3 0.19388 0.0395 0.23782 0.0128 0.28164-0.0139 0.12576-0.16935 0.22973-0.42726 0.36587-0.55552-0.13282 0.12876-0.22137 0.38845-0.28008 0.56638 1.0297-0.20746 1.9736-0.42592 2.9176-0.64441 0 0 0.0091 2.2e-4 0.02894 2e-3 -0.0049 2e-3 -0.0098 3e-3 -0.01241 6e-3l-5.29e-4 5.3e-4 -0.0011 5.3e-4v0.00158h-5.3e-4v0.00159h-5.29e-4v5.3e-4c-2.9e-5 2.6e-4 6e-6 1e-3 0 2e-3v0.00264c7.94e-4 2e-3 0.0021 5e-3 0.0041 7e-3 0.0131 0.0165 0.02729-6e-3 0.03256-0.0196 0.02635 3e-3 0.06367 7e-3 0.1142 0.0155 3.2668 0.13883 6.4152 0.25862 9.5627 0.37827 0.0258-0.0337 0.05321-0.054 0.0925-0.0527-0.02363 8e-3 -0.03681 0.0355-0.03669 0.0827 0.05576 0.03 0.17899 2e-3 0.15658-0.0289-0.01-9e-3 -0.01966-0.0165-0.02894-0.0233 0.03006 0.0164 0.06534 0.0397 0.10645 0.0713 0.55988 0.10192 1.0327 0.13541 1.4475 0.0884 0.0535 0.0139 0.10686 0.0277 0.16072 0.0419 2.9848 0.19616 5.8724 0.58025 8.6656 0.22479 5.1488-0.65522 7.9668-4.6658 7.2125-9.8159-0.33724-2.3022-0.91485-4.5695-1.3834-6.8523-0.0038-0.14303-0.0077-0.28587-0.0026-0.45113 0.0062 0.1444 0.0218 0.26896 0.04909 0.37414 0.02138-0.3061 0.0098-0.55726-0.02273-0.75345 0.0067-0.0639 0.01442-0.13137 0.02429-0.20308 0.09337-0.31954 0.11586-0.46247 0.13798-0.60514-0.30327-0.23555-0.60676-0.47084-0.9958-0.77307 0.38915 0.30212 0.69555 0.53536 1.0645 0.71623 0.8028-0.73181 1.4669-1.5101 2.2841-2.0619 2.354-1.5894 2.735-3.4861 1.0165-5.7785-0.57311-0.76454-0.73915-1.2665 0.33331-1.8252 2.2684-1.1817 2.7525-3.4132 1.3307-5.5516-0.43617-0.65598-0.95425-1.261-1.3503-1.9389-0.90464-1.5486-0.8004-2.5244 0.27286-4.0339-0.41264-0.022-0.95238-0.1026-1.2738-0.0512 0.32599-0.0533 0.88439 0.0222 1.3617 0.0263 0.29885-0.0499 0.45291-0.13591 0.60203-0.22996 1.9343-1.2202 3.997-2.2808 5.7681-3.7042 2.1149-1.6996 2.0594-3.5135 0.14883-5.3666-2.2747-2.2063-4.7567-4.2281-6.8223-6.6125-2.0521-2.369-3.6989-5.089-5.6782-7.8729 0.95366-0.30361 1.4797-0.47434 2.0076-0.63872 2.3798-0.74102 4.3161-1.967 5.0064-4.5615-0.0037 3e-3 -0.01913 0.01-0.08113 0.0253-1.4288 0.5606-2.7246 1.3064-4.1155 1.5937-2.8512 0.5891-3.2246 0.0848-2.8381-2.8112 0.71006-5.3194 0.75538-10.623-0.69453-15.853-0.28789-1.0385-0.59801-2.0702-0.94154-3.2551 0.50133 0 0.75753-0.03879 0.9989 0.0057 5.3081 0.97803 10.417 2.5788 15.308 4.8762 7.7134 3.6235 14.889 8.181 22.111 12.662 3.2123 1.9932 6.4712 3.9101 9.7095 5.8616 0.03243 2e-3 0.06526 3e-3 0.1018 0.0145-0.02373 5.2e-4 -0.04109 8e-3 -0.04806 0.0233 0.03991 0.028 0.12168 0.0466 0.15555 0.0367 0.01323 0.0104 0.0273 0.0225 0.04186 0.0362 0.10463 0.17102 0.18254 0.19691 0.27492 0.17828 0.29792 0.0154 0.60821-0.0143 0.8971 0.0336-0.2875-0.0467-0.58915-0.01-0.82682 0.0253 1.7362 0.93726 3.4021 1.8153 5.1764 2.682 1.4451 0.57676 2.7967 1.151 4.132 1.7523-1.3352-0.60113-2.6848-1.1721-4.0814-1.6748 1.7991 0.99745 3.6244 1.9797 5.5185 2.8024 9.9642 4.3275 20.245 7.1419 31.252 6.2854 4.9959-0.38881 9.897-1.2368 14.32-3.761 3.2009-1.8267 5.7243-4.2604 6.3598-8.1349 0.56422-3.4398-1.7488-6.6793-5.1857-7.2456-2.993-0.493-6.0538 1.6168-6.597 4.5796-0.20415 1.1139-0.0516 2.1554 0.7953 2.9626 0.0923-0.38338 0.0394-0.72767 0.0253-1.0733-0.0829-2.024 1.1077-3.7564 3.0613-4.4705 1.9285-0.70498 3.8481-0.19947 5.0602 1.4785 1.258 1.7416 1.0094 3.6007 0.0284 5.3594-1.2865 2.3065-3.3878 3.6436-5.794 4.5636-3.3449 1.2789-6.8435 1.6798-10.381 1.6325-2.6948-0.0361-5.3904-0.2646-8.0775-0.49765-1.4445-0.12525-2.8854-0.37938-4.3046-0.68471-2.0988-0.45156-4.1764-1.0005-6.2632-1.5079 0.79782 0.34941 1.5821 0.73874 2.3828 1.0795-0.80468-0.34229-1.6005-0.7359-2.4345-1.0997-0.0518-0.0205-0.16329-0.0258-0.16329-0.0259-0.92396-0.29325-1.865-0.54964-2.7957-0.82837 0.92396 0.26789 1.8567 0.49599 2.7585 0.74362-0.1805-0.18043-0.31279-0.30301-0.46871-0.36793-3.6012-1.4998-7.2293-2.9385-10.8-4.5077-2.2014-0.96748-4.316-2.1315-6.4549-3.1176 0.07877 0.1108 0.14865 0.21285 0.21963 0.29921-0.07616-0.091-0.15519-0.20118-0.2496-0.32763-0.04454-0.11834-0.12609-0.10698-0.12609-0.10697-0.05331-0.0145-0.11354-0.0344-0.18707-0.0641 0.06748 0.0251 0.1207 0.0294 0.16536 0.0134-0.13089-0.0798-0.24003-0.10902-0.30334-0.0816 0.02384 0.014 0.04437 0.0239 0.06563 0.0346-0.04079-0.0185-0.07261-0.0301-0.12712-0.0589-0.10367-0.0778-0.22869-0.10094-0.30231-0.0522-0.01024-0.0268-0.02066-0.0537-0.03101-0.0806-0.33906-0.41886-0.70997-0.72423-1.1183-0.96738-2.2308-1.3286-4.503-2.5908-6.7019-3.9698-7.9417-4.9798-15.879-9.9552-24.366-13.995-6.504-3.0954-13.266-5.1847-20.457-5.8115-1.0509-0.0916-2.1016-0.20638-3.1548-0.24081-1.2031-0.03935-1.3791-0.9915-1.5301-1.8123-0.03354-0.18216 0.83064-0.70267 1.325-0.7767 1.5636-0.23403 3.1447-0.39376 4.7243-0.46922 8.9098-0.42564 17.659 0.8565 26.323 2.7233 5.937 1.2792 11.804 2.8785 17.717 4.2752 2.7744 0.65548 5.5823 1.1709 8.3747 1.7498 0.0016-0.052-0.0011-0.10368-0.01035-0.1943-0.1264-0.04426-0.25009-0.04962-0.46612-0.0646-0.12472-0.02434-0.2204-0.04852-0.31161-0.07855 0.06937 0.01852 0.12981 0.02262 0.1788 0.01085-0.07264-0.03947-0.13844-0.06892-0.1974-0.08837 0.0787 0.02347 0.14894 0.04229 0.2899 0.09767 0.25617 0.07319 0.37963 0.0788 0.5488 0.02223 0.28189 0.06456 0.51833 0.19055 0.84181 0.3204-0.08709-0.0035-0.09186 0.07975-0.0181 0.18965 0.73099 0.19175 1.3884 0.27363 1.9895 0.32091-0.13258-0.08441-0.18738-0.15201-0.22014-0.2372-0.11953-0.0045-0.23954-0.0088-0.44855-0.02119-0.18902-0.02593-0.34626-0.0549-0.50178-0.09147 0.14068 0.02776 0.26699 0.03458 0.38034 0.01394-0.2699-0.10213-0.50747-0.13475-0.6904-0.10129-0.17132-0.06714-0.28731-0.06862-0.49041-0.07338 0.2031 0.0046 0.31847 0.0059 0.4346 0.0072 0.23816 0.03246 0.47728 0.06522 0.83664 0.17518 0.24075 0.08199 0.35999 0.08642 0.49506-0.0057 0.01722 0.18178 0.07204 0.24938 0.28474 0.35915 0.30316 0.07016 0.46975 0.08022 0.63665 0.09043 0.10223 0.01016 0.20438 0.02043 0.32866 0.04703-0.10791-0.01326-0.20196-0.0082-0.28112 0.01603 0.22549 0.07468 0.40855 0.09271 0.54984 0.05839 0.03861 0.01296 0.07942 0.02765 0.12247 0.04393 0.43712 0.14258 0.729 0.17694 1.0211 0.21136 0.06085 0.0021 0.12187 0.0043 0.20154 0.01551-0.06423-2.4e-5 -0.11777 0.01019-0.15916 0.03411 0.14106 0.03245 0.24856 0.02566 0.32711-0.0021 0.04121 0.0095 0.08664 0.02058 0.13746 0.03462 0.45982 0.10385 0.77411 0.1389 1.0883 0.17363 0.10632 0.0042 0.21273 0.0082 0.34107 0.02376-0.1105-0.0028-0.20688 0.0074-0.28732 0.03462 0.22804 0.04521 0.41204 0.04301 0.55759 0.01085 0.048 0.01 0.0989 0.02117 0.15348 0.03462 0.46426 0.10744 0.77439 0.13509 1.0842 0.16226 0.076-0.01069 0.15168-0.02164 0.24805-0.02016-0.0819 0.0066-0.15286 0.02958-0.21291 0.0677 0.17224 0.03198 0.31032 0.01802 0.41703-0.04857 0.0331 0.0054 0.0686 0.01196 0.10645 0.02016 0.47334 0.09478 0.8138 0.1102 1.1544 0.12557 0.25285 0.02151 0.50588 0.04315 0.8015 0.08113-0.27606-0.02708-0.52168-0.03294-0.7462-0.01241 0.47873 0.08621 0.9064 0.10881 1.249 0.08733 0.045 0.0076 0.0913 0.0158 0.1385 0.02429 0.664 0.11818 1.1359 0.16246 1.6082 0.20671 0.1715-0.01376 0.3433-0.02732 0.54312-0.02532-0.18009 0.0072-0.34225 0.03458-0.48576 0.08062 0.34922 0.03708 0.6443 0.02188 0.89142-0.05581 0.0424 0.0047 0.0864 0.01021 0.13177 0.01654 0.98407 0.1382 1.8066 0.1867 2.6293 0.23513 0.10554-0.03054 0.24365-0.05981 0.3607-0.08992-0.11702 0.03938-0.21138 0.08702-0.28009 0.15503 1.1523 0.0501 2.2255 0.03579 3.1848 0.0036 0.0463 0.0048 0.0928 0.0095 0.14004 0.01447 1.3094 0.02183 2.381 0.01077 3.4525-5.29e-4 0.48429-0.01418 0.96877-0.02843 1.5126-0.04031-0.51581 0.01831-0.99023 0.0454-1.4289 0.09612 0.80981-0.0021 1.545-0.05372 2.1859-0.11007 0.077-0.0011 0.15576-0.0026 0.23564-0.0036 1.1986-0.07874 2.1677-0.16616 3.1373-0.25373 2e-3 -5.29e-4 6e-3 -0.0021 0.0139-0.0031-9e-3 0.0055-0.0188 0.01585-0.0253 0.03256-0.0116 0.02975 0.0625 0.04393 0.0625 0.04393s-6e-3 -0.06394-0.015-0.07803c0.0187-5.3e-4 0.0465 1.43e-4 0.0863 0.0041 0.69951-0.06258 1.2988-0.1351 1.8981-0.20774 0.15332-0.01429 0.3066-0.02854 0.50798-0.04237-0.1806 0.01839-0.32747 0.04419-0.44907 0.09043 0.31179-0.0058 0.56938-0.05576 0.74517-0.10852 0.0415-0.0021 0.0848-4e-3 0.13023-0.0062 0.6191-0.06949 1.0405-0.14099 1.4619-0.21239 0.0693-0.0079 0.13889-0.01585 0.23358-0.01963-0.0896 0.0081-0.1506 0.02418-0.1943 0.05736 0.16358 0.0067 0.29134-0.0213 0.34778-0.05943 5e-3 4.5e-5 0.0106-6.6e-5 0.016 0 0.0663 0.01069 0.0855 0.0016 0.0909-0.0036l0.00159-0.001587v-5.3e-4l5.3e-4 -5.29e-4v-5.29e-4c4e-3 -0.11064 8e-3 -0.2213 0.0124-0.41496-0.7167 0.0058-1.434 0.09496-2.3725 0.19741-1.3874 0.18056-2.5491 0.44763-3.7202 0.49558 1.171-0.04796 2.3325-0.31526 3.607-0.49661 0.30811-0.82944 0.42154-1.5687-0.22841-1.8448 0.66173 0.27488 0.5902 1.0114 0.45011 1.8314 0.83007-0.08814 1.5473-0.17704 2.3709-0.26562 0.38992-0.0021 0.67303-0.0046 0.95653-0.0072 0.0619-0.04109 0.12375-0.08225 0.20981-0.12402-0.0718 0.05075-0.12707 0.10804-0.1726 0.18138-0.32023-0.05502-0.60386-0.05219-0.99426 0.03307-0.11088 0.19337-0.11472 0.30396-0.0145 0.42426 0.56658-0.07753 1.0289-0.16505 1.4754-0.26923-0.016-0.01701-0.0481-0.05116-0.0481-0.05116-0.11891-0.02474-0.23774-0.04938-0.38653-0.12093 0.14888 0.07123 0.26964 0.09182 0.41186 0.04909-0.025 0.07228 7e-3 0.10592 0.13746 0.12092 4.5328-1.0677 8.9874-1.9747 13.325-3.2722 7.4176-2.2187 14.216-5.9288 21.176-9.2361 5.0652-2.4069 10.172-4.6935 15.8-5.4648 4.5476-0.6232 9.0062-0.472 13.049 2.0211 2.9361 1.8108 4.6571 4.4139 4.4478 7.999-0.16785 2.8734-2.4506 5.3446-5.1919 5.424-1.063 0.03083-2.3512-0.28498-3.1569-0.92294-0.78862-0.62452-1.0935-1.8599-1.5601-2.7327-0.98841 1.5401 0.029 3.8796 2.3166 4.8168 3.8002 1.5566 8.3263-1.0929 9.2341-5.4059 0.90689-4.3077-1.0895-8.5984-5.2586-11.215-4.9689-3.1181-10.451-3.5041-16.079-2.8567-5.4703 0.6295-10.639 2.4294-15.786 4.286-0.46093 0.16625-0.95752 0.23319-1.4376 0.34623-0.0861-0.11666-0.17231-0.23372-0.25838-0.35037 0.47728-0.62637 0.92789-1.2756 1.4366-1.8753 2.9072-3.4274 4.8919-7.227 4.7067-11.866-0.17639-4.4142-3.6591-7.8896-7.6435-7.6994zm-121.94 0.91261c-1.7553 0.01105-3.529 0.03651-5.2607 0.29352-6.9998 1.039-13.533 3.4073-19.493 7.244-6.1508 3.9592-11.181 9.1042-15.315 15.095-3.3046 4.7884-5.9303 9.9536-8.0403 15.393-2.6794 6.9069-4.7583 13.983-6.0947 21.258-1.2531 6.8215-2.3259 13.677-3.407 20.529-0.3537 2.2416-0.48523 4.5183-0.7183 6.7789 0.10943-7e-3 0.21922-0.0134 0.41083-0.0227 0.17258-0.96623 0.26309-1.9295 0.35346-3.0102 0.02919-0.43315 0.05826-0.76815 0.15451-1.111-0.09574 0.34166-0.11897 0.66216-0.07958 0.92812 0.02326-0.0791 0.04084-0.15374 0.05788-0.2279-0.02294 0.12377-0.02368 0.194-0.05788 0.3452-0.16531 1.1461-0.25568 2.1095-0.26872 3.1455 0.14935 0.70372 0.61283 1.4255-0.33073 1.9291-0.0323-0.5036-0.06741-0.9-0.22169-1.2821-0.94552 6.7477-1.7714 13.481-2.5327 20.167 0.16902-0.28483 0.27302-0.52251 0.37724-0.76016 0 0 0.0082-0.12924 0.01704-0.19327 0.01953-0.27628 0.05504-0.54146 0.07752-0.80512-0.0096 0.22498-0.01098 0.44085 0.0026 0.6413-0.0051 0.0338-0.0033 0.0555-0.0088 0.0899-0.08022 0.13779-0.08825 0.26725-0.05013 0.3576-0.14233 0.14732-0.24645 0.38496-0.44958 0.74001-0.09849 0.16941-0.0982 0.22129-0.09767 0.27336-0.0069 0.31618-0.01384 0.63219-0.03462 0.96842 0.0104-0.31514 0.0069-0.61102-0.0067-0.88677-0.06812 0.65077-0.10177 1.2331-0.07855 1.7539-0.0105 0.0765-0.02199 0.15455-0.03462 0.2341-0.11482 0.29559-0.11675 0.42802-0.11834 0.56069-0.04741 0.5335-0.09467 1.0668-0.15141 1.6428 0.04844-0.55465 0.08471-1.073 0.10336-1.5617-0.10314 0.92183-0.16462 1.7735-0.20412 2.5306-0.0091 0.0834-0.01826 0.16798-0.0279 0.25373-0.10928 0.41754-0.17532 0.63845-0.24133 0.85938-0.0077 0.23942-0.0155 0.47895-0.03772 0.73742 0.01177-0.2385 0.0086-0.45701-0.0062-0.6537-0.07086 0.50123-0.10437 0.93053-0.07907 1.3002-0.0094 0.0528-0.01937 0.10676-0.03049 0.16174-0.10911 0.19746-0.11031 0.25242-0.1111 0.30748 0.0042 0.19276 0.0081 0.38593 0.0052 0.61236-0.0049-0.20568-0.01892-0.384-0.04548-0.54053-0.01865 0.40545-0.0041 0.7519 0.02997 1.016-0.0031 0.0592-0.0067 0.12116-0.01085 0.18552-0.64437 3.692-1.2553 7.1727-1.8423 10.657-1.5068 8.945-3.2905 17.823-6.3453 26.395-0.07165 0.28718-0.1433 0.57416-0.22841 0.87436 0.07269-0.28094 0.13212-0.54753 0.18087-0.79685-0.19081 0.59214-0.34232 1.1205-0.43977 1.6113-0.02604 0.0731-0.05356 0.14717-0.08217 0.22273-0.15018 0.23603-0.17822 0.35474-0.20671 0.47335-0.35224 1.0798-0.70449 2.1595-1.0713 3.3352-0.01524 0.0904-0.03238 0.15116-0.06046 0.19999 0.01331-0.0289 0.01172-0.0548-0.0047-0.0775-0.11298 0.0768-0.14769 0.14213-0.10594 0.19431-0.01315 8e-3 -0.02907 0.0162-0.04754 0.0253 7e-3 -0.0788 0.04207-0.14501 0.16795-0.31575 0.41725-1.2023 0.76921-2.2821 1.0588-3.2949-0.51284 1.2643-0.96299 2.4618-1.3653 3.654 0.03212-3e-3 0.08353-0.0207 0.11369-0.0315-0.04517 0.0223-0.09957 0.0503-0.15296 0.0879-0.0952 0.10687-0.10292 0.15211-0.11059 0.1974 0 0 0.04732 9e-3 0.06253 0.0274 0.0476 0.036 0.07035 0.0687 0.06615 0.10491 5.29e-4 -0.0262-0.02358-0.0412-0.0708-0.0398-0.0067 0.016-0.01082 0.0386-0.01188 0.0605-1.7e-4 -0.0264 5.29e-4 -0.0546 0.0021-0.078 0.0026-0.0367-0.01109-0.0558-0.03514-0.0543-0.01871 1e-3 -0.04368 0.0149-0.07183 0.0419-0.26866 0.55997-0.47305 1.0584-0.62838 1.5617 0.04895 6e-3 0.1478 3e-3 0.1478 3e-3 0.12337-0.25096 0.24647-0.50176 0.44442-0.89297 0.0976-0.2571 0.12064-0.37414 0.14366-0.49093v-1e-3s-0.0013-0.0252-0.0021-0.0584c0.0024 0.0284 0.01071 0.0486 0.02479 0.0398-0.05168 0.13466-0.07471 0.25123-0.10697 0.45682-0.10024 0.29059-0.19536 0.53632-0.30851 0.75034 0.1078-0.20467 0.18713-0.42046 0.23409-0.6103-0.18869 0.30242-0.31174 0.55372-0.3824 0.8568-0.05271-0.0521-0.15114-0.0489-0.22118-0.045-0.07004 4e-3 -0.06615 0.0491-0.06615 0.0491-0.01082 0.0931-0.0214 0.1863-0.03979 0.34934-0.05831 0.029-0.1164 0.0537-0.17466 0.0744-0.26173 7e-3 -0.44176 0.0152-0.57826 0.078-0.16212-0.0689-0.27438-0.0762-0.46716-0.0847 0.19278 9e-3 0.30434 0.0149 0.416 0.0212 0.19916-4e-3 0.39812-9e-3 0.70435-0.0863 0.11792-0.16585 0.12896-0.25857 0.02119-0.33332-0.87339 0.0432-1.6282 0.0681-2.2826 0.11886 0.41579 0.10956 0.7313 0.19293 1.1317 0.27905-0.25242 0.14985-0.47803 0.37142-0.69091 0.53692 0.2013-0.16518 0.40491-0.39031 0.60565-0.5395-0.31538-0.0836-0.63048-0.16705-1.1508-0.30231-3.1702-0.0358-6.1355-0.0203-9.1007-5e-3 -0.36978 0.0651-0.73968 0.13028-1.1462 0.1912 0.38259-0.0682 0.73193-0.14462 1.0511-0.23564-0.69392 0.0846-1.3089 0.20633-1.835 0.34055-0.08087 9e-3 -0.1634 0.0189-0.24805 0.0279-1.5548 0.15036-2.9041 0.32102-4.2519 0.4992-3.8521 0.50934-7.5003 1.6499-10.819 3.6907-3.4023 2.0922-6.0606 4.8137-7.0326 8.8578-1.1318 4.7088 0.82904 8.2962 5.5335 9.4862 2.0941 0.52982 4.3628 0.63104 6.5355 0.53743 5.5293-0.23804 10.707-1.8978 15.62-4.4085 3.3295-1.7014 6.5678-3.5395 9.1503-6.2094-1.1954 0.58383-2.4441 1.0429-3.5181 1.6888 1.0732-0.64611 2.3189-1.1066 3.5021-1.6955 0.08451 4e-3 0.10849 0.0289 0.1111 0.032 0.68858-0.81397 1.4127-1.6008 2.0593-2.4469-0.6467 0.84613-1.3706 1.633-1.9699 2.4247 1.147-0.93703 2.2729-1.7858 3.2391-2.7885 0.68331-0.70914 1.3363-0.85341 2.2262-0.58343 3.0342 0.92048 6.116 1.698 9.1116 2.7285 12.203 4.1971 24.368 8.5032 36.571 12.7 8.6032 2.9588 17.398 5.1715 26.482 5.9883 4.8739 0.43825 9.7549 0.3683 14.452-1.002 0.03563-2e-3 0.07123-4e-3 0.10697-6e-3 0.2053 0.0342 0.24885 5e-3 0.29249-0.0238 0.24192-0.0922 0.48361-0.18428 0.74724-0.26768-0.24028 0.0862-0.46008 0.18191-0.65732 0.28112 0.51599-0.12822 0.95412-0.26801 1.3327-0.45785 0.0598-0.0123 0.12063-0.024 0.18345-0.0351 3.3623-0.90334 6.4528-2.0811 9.001-4.3444-0.24747-0.0122-0.5156-0.0749-0.76274-0.0863 0.25402 0.0109 0.53951 0.0744 0.83251 0.0863 0.55126-0.33817 1.0328-0.67607 1.5141-1.0139 0.03311-0.0814 0.06581-0.16307 0.1509-0.27751-0.08499 0.1144-0.11538 0.19546-0.08578 0.25477 0.10051-0.0522 0.13588-0.0814 0.16433-0.15865-0.0067-0.0461-0.01011-0.13757-0.06149-0.11265 0.01744-0.01 0.03427-0.0191 0.05116-0.0284 0.0019 0.0195 0.01434 0.0985 0.09147 0.13901 0.25307-0.12126 0.4177-0.28861 0.51056-0.4408-0.13564 0.0597-0.24997 0.11443-0.3545 0.16743 0.12215-0.0645 0.25548-0.13169 0.43253-0.21911 0.93424-0.85656 1.7187-1.6462 2.5032-2.4355 0.09933-0.13115 0.19856-0.26253 0.32143-0.40463-0.107 0.138-0.18825 0.27059-0.24184 0.40153 0.2279-0.22887 0.38537-0.45493 0.48162-0.65888 0.02156-0.0216 0.04364-0.0438 0.06666-0.0661 0.11802-0.0549 0.17828-0.15245 0.17828-0.15245s0.0067-5e-3 0.02429-0.0212c-0.0046 7e-3 -0.02236 0.0224-0.0016 0.0429 0.0013 1e-3 0.0026 2e-3 0.0036 3e-3h5.29e-4l5.29e-4 5.3e-4h5.29e-4v5.3e-4h0.003175l5.29e-4 -5.3e-4h5.3e-4v-5.3e-4l5.29e-4 -5.3e-4v-5.3e-4c0.0034-0.01-0.0026-0.0402-0.0057-0.046l-0.0011-5.3e-4c0.01521-0.014 0.03847-0.0359 0.07183-0.0698 0.27734-0.34235 0.48033-0.60878 0.68316-0.8754 0.03915-0.0718 0.07846-0.14385 0.13849-0.23151-0.04372 0.079-0.06853 0.15203-0.07028 0.22221 0.12218-0.14263 0.18344-0.27694 0.19689-0.39016 0.02352-0.0288 0.04921-0.0596 0.07751-0.092 0.2408-0.27334 0.35364-0.44916 0.46664-0.62529 0 0 3e-3 -7e-3 0.01344-0.0233-0.0028 0.0133-0.0013 0.0289 0.01498 0.0367 0.0021 1e-3 0.0041 2e-3 0.0057 2e-3h0.0011l5.29e-4 -5.3e-4h0.001587l5.3e-4 -5.3e-4 5.29e-4 -5.2e-4h5.29e-4v-0.00159h5.29e-4c5e-3 -0.0107-5e-3 -0.0432-0.01188-0.0543 0.01511-0.0211 0.03794-0.051 0.07183-0.091 0.20047-0.29573 0.31962-0.49576 0.43873-0.69557h5.29e-4c0.0042-3e-3 0.0209-0.0187 0.0708-0.10077 0.0924-0.17616 0.123-0.25099 0.154-0.32608 0.08859-0.1759 0.17715-0.35211 0.29145-0.55293-0.09662 0.18751-0.16892 0.36465-0.21342 0.53536 0.20731-0.31691 0.34354-0.61807 0.4253-0.88625 0.02588-0.0407 0.05276-0.0825 0.08113-0.12557 0.15952-0.19428 0.19026-0.26332 0.22066-0.33228 0 0 0.0066-0.013 0.02223-0.0382-0.0066 0.0195-0.0089 0.0414 0.01138 0.0455 0.03396 7e-3 0.06821-0.0527 0.06821-0.0527s-0.04057-0.0253-0.0584-0.0264c0.01582-0.0238 0.03648-0.0534 0.06253-0.0884 0.10408-0.17542 0.13079-0.24719 0.15761-0.31885 0 0 0.01161-0.0273 0.03359-0.0661-0.0109 0.0325-0.01434 0.0637 0.0088 0.061 0.04236-5e-3 0.08733-0.0765 0.08733-0.0765s-0.03187-0.0491-0.05323-0.0527c0.01577-0.0229 0.03403-0.0472 0.05426-0.0703 0.19149-0.33335 0.29901-0.57054 0.40669-0.80822 0.04765-0.12043 0.09519-0.24049 0.16278-0.38653-0.05215 0.1329-0.08398 0.25183-0.0894 0.36173 0.12966-0.23505 0.19422-0.44816 0.21652-0.61908 0.01926-0.0369 0.03951-0.0749 0.06149-0.11524 0.12375-0.19913 0.14389-0.26493 0.16381-0.33073 0.04852-0.14539 0.13096-0.34437 0.18552-0.49919-0.04979 0.16028-0.09314 0.31654-0.11782 0.46198 0.19264-0.42121 0.31776-0.80543 0.37517-1.1384-0.03801 0.0841-0.0613 0.1575-0.09405 0.23771 0.0488-0.12494 0.06777-0.20327 0.12971-0.34882 0.08203-0.38925 0.0611-0.61659 0.03979-0.84387h0.001058v-5.3e-4c-0.0013-3e-3 -0.0088-0.0136-0.03359-0.0439-0.08083-0.0845-0.11722-0.11467-0.154-0.14521v-5.3e-4l5.29e-4 -5.3e-4c2.4e-5 -9e-5 2.64e-4 -1e-3 5.29e-4 -2e-3v-0.00212c-0.0021-7e-3 -0.01765-0.0258-0.09302-0.0636-0.18967-0.0832-0.26979-0.11168-0.34985-0.14004-0.05508-2e-3 -0.126-9e-3 -0.22014-0.0222 0.08969 0.0117 0.15201 7e-3 0.20826-0.0284-0.13352-0.0353-0.25506-0.0203-0.31316 0.0109 0.03262 6e-3 0.06117 0.011 0.08837 0.015-0.05314-8e-3 -0.09986-0.0135-0.18345-0.0279-0.35438 0.11602-0.55006 0.26096-0.74569 0.40617-0.03709 0.0688-0.07408 0.13769-0.13177 0.22325 0.04228-0.0774 0.06522-0.14897 0.06459-0.21963-0.1147 0.13394-0.16874 0.26487-0.17828 0.37414-0.02148 0.0272-0.04449 0.0556-0.07028 0.0863-0.14804 0.15378-0.17899 0.21237-0.2098 0.27078-0.12962 0.17429-0.25915 0.34826-0.4129 0.53641 0.13372-0.18001 0.2446-0.35301 0.33073-0.52142-0.28213 0.31385-0.4953 0.61522-0.65267 0.89349-0.03968 0.0433-0.08134 0.0875-0.12454 0.1328-0.51636 0.4653-0.885 0.84584-1.2537 1.2263-0.16404 0.16365-0.32773 0.32725-0.52503 0.50436 0.17756-0.17203 0.327-0.34384 0.44752-0.52193-0.33785 0.26691-0.60416 0.54991-0.80098 0.82217-0.03471 0.028-0.07007 0.0564-0.10697 0.0853-0.30726 0.18945-0.45653 0.31446-0.60565 0.43977-0.07052 0.0635-0.14129 0.12742-0.23151 0.19379 0.07937-0.0687 0.13498-0.13813 0.16485-0.21653-0.16794 0.0975-0.27593 0.21565-0.3297 0.32608-0.01087 7e-3 -0.02217 0.013-0.03359 0.0196-0.08518 0.0121-0.10697 0.0574-0.10697 0.0574-0.11339 0.0908-0.22711 0.18187-0.36174 0.27596 0.12117-0.094 0.21528-0.18521 0.27957-0.27647-0.24963 0.15145-0.42683 0.30359-0.53898 0.4439-0.0154 9e-3 -0.03104 0.0181-0.04702 0.0274-0.09922 0.015-0.12659 0.0605-0.12661 0.0605-0.20712 0.13188-0.4144 0.26374-0.65319 0.40307 0.21582-0.13584 0.40388-0.27015 0.56276-0.40514-0.42503 0.22534-0.77129 0.45253-1.0449 0.67179-0.05005 0.0262-0.10176 0.0527-0.15503 0.0796-0.23477 0.0842-0.28876 0.12579-0.34313 0.16744-0.11013 0.0626-0.22065 0.12526-0.36018 0.19223 0.12022-0.0674 0.21614-0.13831 0.2868-0.21755-0.24911 0.0969-0.43334 0.21621-0.55552 0.33538-0.03535 0.0142-0.07207 0.0286-0.1111 0.0434-0.21134 0.0575-0.2633 0.0917-0.31523 0.12558-0.05384 0.0259-0.10754 0.0517-0.1912 0.0842 0.06612-0.0313 0.11116-0.0649 0.13487-0.10697-0.14425 0.0399-0.23565 0.10086-0.27698 0.15813-0.03362 0.0114-0.07077 0.0236-0.11214 0.0367-0.22634 0.0742-0.29138 0.11274-0.35605 0.15089-0.46281 0.13879-0.92906 0.26144-1.3901 0.40825 0.43513-0.14721 0.87582-0.29426 1.2986-0.43822-4.3206 1.4191-8.6882 1.7221-13.114 1.5518-1.5741-0.0606-3.1487-0.0992-4.7232-0.1478 0.13822 0.0461 0.27635 0.0922 0.56586 0.19947 0.43217 0.0745 0.71286 0.0878 0.99374 0.10129 0.91546 0.0265 1.8311 0.0531 2.9383 0.15141 0.55922 0.0818 0.92663 0.0918 1.294 0.1018 1.15-0.01 2.2998-0.0189 3.5791-0.0258 0.1294 3e-3 0.14658-3e-3 0.22066-0.0739 1.3302-0.2073 2.6099-0.23679 3.8365-0.50746-1.2266 0.27067-2.5062 0.30011-3.7393 0.51159 0.24838 0.1271 0.47844 0.19536 0.94051 0.31937-0.46299-0.12323-0.70086-0.18407-1.0149-0.24857-0.09715-4e-3 -0.11432 2e-3 -0.12247 6e-3 -0.87252 0.0415-1.7404 0.0806-2.6401 0.0909 0.89228-0.0105 1.7345-0.0502 2.511-0.0935-1.2707 3e-3 -2.4201 0.0122-3.4876 0.0925-5.29e-4 0-0.0011 1e-5 -0.0016 0-0.44947-0.081-0.81692-0.0909-1.2945-0.10438-0.88911-0.0263-1.695-0.0503-2.544-0.11782 0.84593 0.0664 1.6298 0.0819 2.3523 0.046-0.99676-0.0948-1.9118-0.12128-2.7445-0.0801h-0.001058c-0.3634-0.0812-0.64416-0.0944-1.0304-0.11162-0.27083-0.0135-0.509-0.0435-0.75758-0.0605 0.20761 6e-3 0.41273 0.01 0.60617-5.3e-4 -0.1841-0.10353-0.32258-0.14987-0.55552-0.21446-0.28662-0.0262-0.4782-0.0339-0.76636-0.0191-0.22718 0.0367-0.35842 0.051-0.41289 0.13333-0.27136-0.0816-0.4664-0.0952-0.75861-0.11369-0.19127-0.0177-0.34841-0.0376-0.50488-0.0646 0.13541 0.0187 0.25161 0.0195 0.34623-2e-3 -0.28953-0.0839-0.51756-0.10666-0.68213-0.0713h-5.3e-4c-0.42754-0.0782-0.79154-0.0981-1.265-0.12247-0.2056-0.0135-0.37382-0.0407-0.555-0.0579 0.13294 4e-3 0.25857 8e-4 0.37362-0.0124-0.11889-0.0252-0.21965-0.0337-0.32918-0.0501 0.15354 0.0208 0.2534 0.0211 0.43873 0.0543 0.54528 0.0904 0.90919 0.11036 1.2733 0.13074 0.22802 0.0224 0.45619 0.0453 0.84336 0.13436 0.35383 0.08 0.54889 0.093 0.74362 0.10645 0.13105-0.0143 0.26172-0.0282 0.4284-0.13849-2.3908-0.44265-4.8287-0.72299-7.2414-1.1472-11.26-1.9798-22.328-4.7976-33.377-7.7003-1.4992-0.39386-3.0315-0.66143-4.5119-0.92088-0.11904-0.0373-0.23842-0.0752-0.35812-0.11317-0.35414-0.18931-0.56994-0.24515-0.786-0.30127-2.7876-0.67242-5.575-1.3471-8.3633-2.0169 2.7882 0.66977 5.5739 1.3419 8.3122 1.9446-0.16289-0.13946-0.26696-0.23954-0.38809-0.26923-5.4218-1.329-10.841-2.6676-16.271-3.9641-1.3321-0.31814-2.6967-0.50176-3.9641-0.69557-0.04311-0.0107-0.08605-0.0213-0.12919-0.032-0.26451-0.0907-0.36838-0.10711-0.47181-0.12299-2.0806-0.39341-4.1611-0.78528-6.2415-1.1803 2.0801 0.3949 4.1586 0.78411 6.1852 1.1095-1.9194-0.48434-3.7811-0.90129-5.6456-1.309-0.62487-0.13665-1.2327-0.26907-1.0857-1.0961 0.01651-0.0209 0.03323-0.0423 0.05064-0.0636 0.18075-0.19441 0.23411-0.28266 0.28732-0.37104-4e-3 -0.0244-0.0029-0.0473 0.01394-0.0785-0.0076 0.0253 0.0013 0.0488 0.02894 0.0718 0.09963-0.0549 0.10299-0.10666 0.02429-0.14211 0.01627-0.0182 0.03526-0.0385 0.05943-0.062 0.11091-0.13367 0.134-0.18584 0.15709-0.23823 0.04156-0.0926 0.08306-0.18525 0.14676-0.29404-0.04877 0.0993-0.07431 0.1899-0.07493 0.27388 0.13415-0.1805 0.20166-0.34227 0.20981-0.47904 0.01762-0.0243 0.03625-0.0494 0.05633-0.0754 0.14117-0.13718 0.16279-0.18726 0.18448-0.23719 0.03787-0.0854 0.07583-0.17067 0.13488-0.27285-0.04287 0.0921-0.06499 0.17628-0.06408 0.25476 0.12593-0.172 0.18807-0.32754 0.19586-0.45785 0.02141-0.0299 0.0449-0.0615 0.07028-0.0946 0.23182-0.27643 0.33447-0.45067 0.43718-0.62477-2e-6 0 0.0019-8e-3 0.01035-0.0248-0.0011 0.0146 0.0034 0.0311 0.02066 0.0388 0.0312 0.0138 0.05891-0.0481 0.05891-0.0481s-0.0463-0.0173-0.0646-0.0176c0.01318-0.0223 0.03272-0.0523 0.06201-0.0904 0.1101-0.16804 0.14402-0.23635 0.17777-0.30489-0.0029-0.0258-2.62e-4 -0.0504 0.0186-0.0842-0.0098 0.0274-0.0021 0.0526 0.02635 0.0775 0.10461-0.056 0.10821-0.1094 0.02687-0.14676-0.0053 5e-3 -0.0099 0.01-0.01447 0.0145 0.01855-0.0227 0.04238-0.049 0.07338-0.0806 0.11001-0.14126 0.13188-0.19628 0.154-0.25115 0.13545-0.30062 0.2713-0.6015 0.42788-0.91829-0.13775 0.30631-0.25482 0.60256-0.34933 0.8909 0.29173-0.54083 0.52008-1.0595 0.69401-1.5456 0.04129-0.0736 0.08399-0.14862 0.12868-0.22479 0.22957-0.27737 0.31988-0.44822 0.41031-0.61909 0.05364-0.15219 0.10748-0.30432 0.18035-0.47387-0.05598 0.16114-0.09281 0.31373-0.10852 0.4625 0.14709-0.28813 0.23518-0.56692 0.27543-0.81132 0.02458-0.0465 0.05132-0.0944 0.07958-0.14417 0.29565-0.45334 0.46563-0.79338 0.63562-1.1333 0.17744-0.44876 0.35467-0.89748 0.5302-1.3808-0.1751 0.49837-0.33205 0.93543-0.44752 1.3637 0.46281-0.8704 0.84294-1.7241 1.1663-2.5792-0.05647-1e-3 -0.1695 3e-3 -0.1695 3e-3 -5.29e-4 1e-3 -6e-3 9e-3 -0.01138 0.0119-0.01685 0.0604-0.04553 0.10857-0.10852 0.15348 0.05799-0.0428 0.07434-0.086 0.04961-0.12867 0.0016-8e-4 0.0035-2e-3 0.0052-3e-3 0.05957-0.0237 0.06485-0.0339 0.0615-0.13849 0.0034 0.10467 0.11637 0.10059 0.18552 0.0971 0.0466-2e-3 0.0581-0.0153 0.06046-0.0232 5.3e-4 -3e-3 1.83e-4 -5e-3 0-6e-3v-5.3e-4c0.04806-0.12728 0.09579-0.25424 0.16485-0.40721-0.05385 0.13988-0.08558 0.26505-0.08992 0.38085 0.13486-0.247 0.20196-0.47001 0.22118-0.65009 0.01797-0.0346 0.03655-0.0705 0.05685-0.108 0.1251-0.19214 0.14451-0.25483 0.16123-0.40928 0.09139-0.31689 0.18416-0.57671 0.27647-0.85783-0.08251 0.26943-0.15274 0.53598-0.20412 0.81443 0.30549-0.37436 0.57508-0.78098 0.76119-1.2227 3.2205-7.6446 5.7532-15.518 7.2822-23.667 1.7895-9.5369 3.4428-19.102 4.9485-28.689 1.0016-6.3754 1.5886-12.815 2.4582-19.213 0.82206-6.0473 1.6956-12.089 2.6805-18.112 1.7913-10.954 4.2357-21.733 8.6124-32.006 3.1761-7.4554 7.6627-13.946 13.753-19.277 1.572-1.376 3.413-2.4722 5.2193-3.5476 3.2396-1.9288 6.8321-2.9687 10.46-3.8887 0.46072-0.11682 0.8896-0.35938 1.3333-0.54364l5.29e-4 -0.48731c-0.6186-0.19276-1.2383-0.55025-1.8557-0.54674zm28.352 6.8389c0.76785 0.23266 1.5135 0.42768 2.313 0.64699 1.979 0.58665 3.854 1.1827 5.733 1.758-1.879-0.5753-3.7537-1.1691-5.7216-1.6552 0.03831 1.4942 0.49546 2.949-0.1726 4.2752 0.66599-1.3262 0.19581-2.7815 0.06666-4.2752-0.74361-0.25637-1.4806-0.5072-2.2185-0.74982zm12.809 3.9011c1.1165 0.28869 2.2467 0.6745 3.4179 1.1457-1.1074-0.29252-2.2558-0.67063-3.4179-1.1457zm-52.218 0.7121c-0.11915 0.10082-0.16957 0.17945-0.15555 0.22996 0.11758-0.10284 0.17113-0.17748 0.15555-0.22996zm-0.2899 0.2465c-1.8689 1.349-3.3277 2.9419-4.0762 5.0049 1.445-1.6975 2.8065-3.3584 4.0762-5.0049zm41.397 0.85938c-0.02058 0.06048-0.0098 0.1468-0.01963 0.21652 0.13335 0.06053 0.29933 0.154 0.43615 0.21807-0.17328-0.07739-0.34462-0.15392-0.54002-0.22944 0.09365-0.06062 0.09969-0.14504 0.12351-0.20516zm19.217 1.5503c1.8278 0.77158 3.6788 1.4879 5.5764 2.2975 2.2047 0.66127 4.3726 1.1924 6.5014 1.8479-2.129-0.6555-4.2963-1.1867-6.4838-1.6878-0.41268 0.66204-0.82438 1.2257-1.1576 1.8278 0.33311-0.60213 0.74301-1.1682 1.1028-1.9012-1.86-0.89622-3.7112-1.6123-5.5392-2.3838zm-59.005 2.6546c-0.65201 0.46413-1.4004 0.93666-2.2366 1.4077 0.65476-0.46752 1.3977-0.93327 2.2366-1.4077zm-25.862 0.99425c-1.1713 1.3179-2.1067 2.8518-3.0696 4.2959 1.253 2.3538 1.3893 4.8964 1.7379 7.4295-0.34861-2.533-0.48478-5.0752-1.8097-7.3768-2.9083 3.8952-5.3209 7.9552-7.182 12.315 1.8606-4.3598 4.2691-8.4207 7.0859-12.333 1.1218-1.477 2.0656-3.013 3.2375-4.331zm22.707 0.85628c-0.29117 0.18875-0.50208 0.37344-0.64027 0.56172 0.28858-0.18623 0.50467-0.37599 0.64027-0.56172zm66.446 0.11317c-0.10024 0.29602-0.13227 0.62171-0.14004 0.92914-0.03228-0.0099-0.06488-0.01955-0.09715-0.02945 0.0829-0.29761 0.13537-0.61229 0.23719-0.89969zm-14.973 2.1435c0.0034-1.21e-4 7e-3 -1.53e-4 0.01035 0-0.03687 0.0023-0.05398 0.03762-0.04341 0.09819-0.03162 0.0012-0.0667 0.0021-0.1049 0.0021-0.01349-0.0034-0.02732-0.0069-0.04082-0.01033 0.07583-0.05585 0.12833-0.0881 0.1788-0.08992zm0.11627 0.04961c0.01587 0.03465 0.04628 0.06078 0.06408 0.07648-0.01818-0.01591-0.04858-0.04031-0.04858-0.04031s-0.03365 0.0044-0.09147 0.0083c0.04348-0.0074 0.08283-0.02108 0.07596-0.04444zm62.629 7.474c-6.3007 1.4075-12.703 2.0651-19.163 2.2024-3.5624-0.34748-7.1441-0.42604-10.669-0.88935 3.525 0.46307 7.1064 0.53697 10.661 0.79582 6.4675-0.05062 12.87-0.70188 19.171-2.1089zm16.967 0.15089c-1.3625 0.60137-2.757 1.1319-4.1341 1.7007-0.20328 0.08322-0.40642 0.16656-0.69246 0.25632-0.15356 0.06595-0.27064 0.12796-0.39946 0.1912 0.1145-0.06189 0.19749-0.12934 0.25631-0.22376 0.0303-0.01032 0.0618-0.01958 0.0956-0.02842 0.3334-0.02891 0.53664-0.11216 0.75654-0.28732 1.3623-0.48612 2.7554-1.0082 4.1176-1.6087zm-5.2147 2.0402c-0.0718 0.05596-0.12792 0.11888-0.1633 0.18087-1.8396 0.7081-3.5728 1.4856-5.363 2.0981 1.79-0.61246 3.5234-1.3902 5.2824-2.0939 0.0758-0.06409 0.15177-0.12774 0.24392-0.185zm-91.776 0.93534c-0.02101 0.11627-0.04204 0.23253-0.06305 0.34882 0.18254 0.10629 0.35985 0.22272 0.54829 0.31729 5.306 2.6641 10.568 5.4195 15.933 7.9592 4.327 2.0484 8.6964 4.0617 13.194 5.6834 5.6192 2.0261 11.459 3.3379 17.413 4.007 1.6819 0.18909 3.3892 0.15114 5.085 0.21756 0 0 0.0118-0.11108 0.0145-0.16691-2.7686-0.37894-5.5412-0.69413-8.3111-1.0299 2.7699 0.33575 5.5422 0.65128 8.4367 0.97203 1.7007-3e-3 3.3072-6e-3 4.902-7e-3 -1.5954 2e-3 -3.2026 0.0102-4.9062 0.0625-0.12576 0.0582-0.1374 0.16949-0.0362 0.18965 0.30749 0.0163 0.51412 0.0125 0.84181-2e-3 1.2717-1e-3 2.4929 2e-3 3.7264 0.0109-1.2086 2e-3 -2.4286 0.017-3.6799 0.0718 1.347 0.15531 2.7688 0.25058 4.191 0.26045 0.4603 3e-3 0.92172-0.19776 1.3829-0.31522 0.0533 5.3e-4 0.10678 1e-3 0.1602 2e-3v5.3e-4c0.41481-8e-3 0.71685-0.029 1.0609-0.0796 0.0997-0.0718 0.13977-0.12695 0.16226-0.19482-0.47918-1e-3 -0.95844-4e-3 -1.4376-5e-3 0.48781 1e-3 0.98934 3e-3 1.5296 3e-3 -0.11437 0.0698-0.15461 0.12473-0.17259 0.25218 2.5178-0.2966 4.9962-0.67838 7.3825-1.0687-0.2767-0.0125-0.46171-0.0162-0.64647-0.0202-0.1279 0.013-0.25564 0.0263-0.47956 0.0419-0.3142 0.0679-0.56101 0.13428-0.85059 0.19792 0.27511-0.0625 0.49629-0.13425 0.68781-0.24598 0.0391-6e-3 0.079-0.0118 0.12041-0.017 0.2674 0.0492 0.39544 0.0366 0.5612-0.0594 0.14658 0.0869 0.33104 0.0903 0.72037 0.10594 0.33684-0.0516 0.4691-0.11448 0.601-0.17777 0.11688-0.022 0.23387-0.0439 0.39482-0.0651-0.14562 0.025-0.26601 0.0617-0.37931 0.12815 0.22816-8e-3 0.44226-0.0759 0.58808-0.15244 0.0303-3e-3 0.0619-6e-3 0.0951-9e-3 0.37846-0.0771 0.59697-0.1569 0.81544-0.23667 2.4488-0.8027 4.8975-1.6053 7.5598-2.4608 0.28954-0.09486 0.3659-0.13727 0.44184-0.17932 0 0 0.0165-0.0067 0.0501-0.0181-0.0213 0.01066-0.0449 0.02879-0.0362 0.04909 0.0134 0.03064 0.0754 0.0052 0.0754 0.0052s3e-3 -0.05187-8e-3 -0.06253h-0.00159v-5.3e-4l-0.00106-0.001058c0.0272-0.0086 0.0614-0.01826 0.10284-0.02894 0.1846-0.07119 0.24687-0.11077 0.30902-0.15038 0.15916-0.0775 0.31858-0.15512 0.52969-0.2465-0.1848 0.08562-0.33695 0.17345-0.45527 0.27388 0.31483-0.11394 0.55824-0.25442 0.73329-0.38964 0.0422-0.01693 0.0866-0.03469 0.1328-0.05271 0.27424-0.09646 0.35211-0.14051 0.42995-0.18449 0-8e-6 7e-3 -0.0027 0.0269-0.01035-0.011 0.0067-0.0257 0.0195-0.0238 0.04186 8e-5 0.0013 2.6e-4 0.0033 5.2e-4 0.0041 6e-5 1.14e-4 2.7e-4 0.0013 5.3e-4 0.0016l5.3e-4 5.29e-4h5.3e-4v5.29e-4h0.00265l5.3e-4 -5.29e-4c0.01-0.0064 0.0284-0.0443 0.0294-0.05219 0.0237-0.0088 0.0608-0.02207 0.11783-0.04237 0.19819-0.08963 0.26988-0.13423 0.34158-0.1788 0.47328-0.22712 0.94635-0.45422 1.4666-0.69092-0.49429 0.23491-0.95451 0.47274-1.3823 0.72295 0.81555-0.34605 1.5557-0.72147 2.2148-1.0914 0.0684-0.02936 0.13783-0.05858 0.20826-0.08837 0.26707-0.08204 0.33285-0.12296 0.39894-0.16381 0.26847-0.12541 0.53707-0.25119 0.85576-0.38809-0.29292 0.1334-0.55139 0.26955-0.77618 0.4191 0.48715-0.18552 0.90035-0.40023 1.2371-0.60978 0.0462-0.01847 0.0931-0.03733 0.14159-0.05633 0.26209-0.08546 0.33045-0.12636 0.39842-0.16743 0.53346-0.23013 1.0665-0.46058 1.648-0.69918-0.5555 0.23714-1.075 0.47734-1.5606 0.72967 0.90469-0.34737 1.7302-0.72265 2.4727-1.094 0.069-0.02682 0.13907-0.05401 0.20981-0.08113 0.26294-0.07269 0.32676-0.11023 0.39067-0.14779 0.2974-0.1171 0.59469-0.2342 0.93225-0.35605-0.31118 0.12282-0.59178 0.24894-0.84181 0.38499 0.56036-0.18199 1.0438-0.38888 1.4516-0.59428 0.0697-0.0227 0.14118-0.04555 0.21497-0.06873 0.36007-0.09215 0.51061-0.15952 0.66095-0.22686 1.74-0.68995 3.491-1.1671 5.2762-1.3286-1.7617 0.17352-3.491 0.66087-5.1904 1.3694 2.4834-0.67289 4.905-1.2497 7.4362-1.0087 1.3039 0.12411 2.603 0.29611 3.8442 0.40514 0.0652 0.02294 0.13055 0.04632 0.19585 0.07028 0.25559 0.13801 0.33539 0.16729 0.41548 0.19637 0.0598 0.0209 0.11959 0.0418 0.19068 0.07545-0.0651-0.02273-0.11948-0.02963-0.16691-0.01757 0.12783 0.0773 0.23662 0.10554 0.31368 0.09715 0.0133 8e-3 0.0267 0.01632 0.0408 0.02532 0.0619 0.06984 0.13487 0.08217 0.13487 0.08217 0.0646 0.02543 0.12889 0.05072 0.20361 0.08992-0.069-0.02875-0.12696-0.03969-0.17622-0.03101 0.13561 0.08964 0.24785 0.1279 0.32866 0.12299 0.01 0.0068 0.0201 0.01386 0.0305 0.02119 0.0522 0.07104 0.10748 0.07441 0.10748 0.07441 0.11874 0.06908 0.23742 0.13786 0.37414 0.23048-0.12604-0.07645-0.24256-0.12919-0.3514-0.15658 0.22786 0.18197 0.43565 0.29565 0.6134 0.3483 0.0272 0.02125 0.0549 0.04326 0.0837 0.06666 0.18961 0.19707 0.28297 0.26768 0.37621 0.33848 0.0232 0.0063 0.0444 0.01561 0.0693 0.03721-0.0221-0.01206-0.0429-0.01106-0.0646 0.0041 4e-3 0.04091 0.0667 0.09354 0.0667 0.09354 1e-5 0 0.0534-0.0057 0.0636-0.02222 6e-3 0.0078 0.0114 0.0159 0.0176 0.02479 0.0401 0.0659 0.11782 0.10645 0.11782 0.10645 0.0226 0.01217 0.0434 0.0265 0.0687 0.05323-0.0231-0.01707-0.0444-0.02098-0.0682-0.0093-7.9e-4 0.04386 0.061 0.10594 0.061 0.10594s0.0599-7.93e-4 0.0698-0.01757c6e-3 8e-3 0.011 0.01624 0.0171 0.02532 0.0395 0.06758 0.11627 0.108 0.11627 0.108 0.0238 0.01365 0.0457 0.02941 0.0703 0.05788-0.0231-0.01873-0.0454-0.02357-0.0698-0.01291 0.0291 0.10436 0.0763 0.13127 0.12506 0.09198 5e-3 0.0089 0.0113 0.01818 0.017 0.02842 0.0308 0.06594 0.0935 0.10025 0.0935 0.10025 0.0269 0.01199 0.0507 0.0275 0.0811 0.06201-0.0249-0.02199-0.0506-0.02703-0.0796-0.01394 0.031 0.11324 0.0823 0.14398 0.14056 0.10128-5e-3 -0.01053-0.0107-0.0199-0.016-0.02894 0.0207 0.02994 0.0444 0.06734 0.0729 0.11576 0.20103 0.28985 0.32993 0.45391 0.45889 0.61753 0 0 6e-3 0.0074 0.016 0.02585-0.0103-0.01106-0.0256-0.02066-0.0419-0.01241-5.3e-4 2.65e-4 -2e-3 0.0011-3e-3 0.0016l-0.00106 0.001058c-9e-5 1.08e-4 -8e-4 0.0013-1e-3 0.0016h-5.3e-4l-5.3e-4 5.3e-4v0.001587h-5.3e-4v0.001058l5.3e-4 5.3e-4v0.001058c5e-3 0.01196 0.0471 0.02649 0.0574 0.02532h0.00153c0.0116 0.02156 0.027 0.05139 0.046 0.09147 0.15716 0.2798 0.26533 0.45665 0.37362 0.63355 0.40995 0.63823 0.6485 1.2916 0.74724 1.9668-0.10549-0.64831-0.34645-1.2718-0.75706-1.865 0.10802 1.7493 0.22691 3.3996 0.39429 4.9842-0.0184 0.0574-0.0374 0.11485-0.0568 0.1726-0.14089 0.24942-0.16733 0.3265-0.19379 0.4036l-0.015 0.03c3e-3 -0.0159 1e-3 -0.0317-0.0165-0.0341-2e-3 -2.6e-4 -4e-3 -2.6e-4 -6e-3 0-5.3e-4 2e-4 -2e-3 8e-4 -3e-3 1e-3l-0.00106 0.00106h-5.3e-4v5.3e-4h-5.3e-4l-5.3e-4 5.3e-4v5.3e-4l-5.3e-4 5.3e-4c-8e-3 0.013 4e-3 0.0485 0.0124 0.0594-0.0142 0.0256-0.0345 0.0598-0.0625 0.10336-0.10249 0.18744-0.13265 0.26243-0.16278 0.33744-0.0682 0.12192-0.13642 0.24401-0.22168 0.37621 0.0731-0.12822 0.12346-0.24524 0.14778-0.35554-0.17154 0.22741-0.27689 0.43678-0.32711 0.61185-0.0111 0.0146-0.0225 0.029-0.0341 0.0439-0.0855 0.0513-0.092 0.10387-0.092 0.10387-0.1468 0.16982-0.29363 0.33987-0.4656 0.51986 0.15164-0.17263 0.28001-0.34126 0.38447-0.50591-0.33213 0.31078-0.59265 0.60975-0.78445 0.89659-0.0417 0.0379-0.0848 0.076-0.12971 0.11524-0.33282 0.19199-0.49816 0.31655-0.66352 0.44079 0 0-0.014 9e-3 -0.0429 0.0243 0.0186-0.0155 0.0341-0.0352 0.0207-0.0506-0.023-0.0264-0.0822 0.0109-0.0822 0.0109s7e-3 0.0521 0.0202 0.0615c-0.03 0.0151-0.0682 0.0336-0.11575 0.0543-0.21358 0.10654-0.2891 0.15305-0.36432 0.19948 0 0-7e-3 3e-3 -0.0253 0.0103 0.0121-8e-3 0.0249-0.022 0.0217-0.0419-1.3e-4 -7.9e-4 -2.6e-4 -2e-3 -5.3e-4 -3e-3v-5.3e-4l-0.00106-0.00106-5.2e-4 -5.3e-4 -5.3e-4 -5.3e-4v-5.3e-4h-5.3e-4l-5.3e-4 -5.2e-4h-0.00265v5.2e-4h-0.00106c-0.0112 7e-3 -0.0309 0.0448-0.0326 0.0548-0.0248 9e-3 -0.062 0.022-0.11627 0.0403-0.19516 0.0841-0.26527 0.12651-0.33539 0.16846-0.14916 0.055-0.2986 0.10996-0.47439 0.16279 0.15483-0.0584 0.28734-0.12318 0.39688-0.19741-0.32554 0.0777-0.58801 0.18319-0.786 0.29817-0.0538 0.0119-0.11019 0.0232-0.1695 0.0346-0.31795 5.3e-4 -0.45318 0.016-0.58859 0.0315-0.14029 1e-3 -0.28095 3e-3 -0.45579 0 0.15835-5e-3 0.29107-0.0191 0.40566-0.0501-0.29122-0.0168-0.54138 7e-3 -0.72037 0.0398-0.048-2e-3 -0.0981-4e-3 -0.15141-7e-3 -0.31274-0.0307-0.44047-0.036-0.56792-0.0413-0.1181-0.0309-0.23603-0.0618-0.38086-0.10955 0.12914 0.0318 0.24404 0.0467 0.34778 0.0398-0.24249-0.0973-0.45641-0.13661-0.62683-0.14108-0.0516-0.0203-0.10659-0.0428-0.16537-0.0677-0.25323-0.13821-0.33657-0.16934-0.42013-0.2005l-5.3e-4 -5.3e-4c-3e-3 -4e-3 -0.0234-0.0236-0.13539-0.0832-0.2151-0.10705-0.30299-0.14626-0.39067-0.18552 0 0-7e-3 -5e-3 -0.0238-0.0176 0.0131 5e-3 0.0294 7e-3 0.0377-0.0114 7.9e-4 -2e-3 1e-3 -3e-3 2e-3 -4e-3 3e-5 -2.7e-4 0-1e-3 0-2e-3 -1e-5 -1.3e-4 0-1e-3 0-2e-3v-5.3e-4l-5.2e-4 -5.3e-4v-5.3e-4l-2e-3 -2e-3c-0.0105-5e-3 -0.0424 5e-3 -0.0512 0.0108-0.0188-0.0149-0.0451-0.0365-0.0801-0.0672-0.57174-0.56759-1.0582-1.0606-1.5446-1.5534 0 0-8e-3 -0.0127-0.0233-0.0424 0.0135 0.0181 0.0337 0.0362 0.0517 0.0243 0.0277-0.0183-7e-3 -0.0749-7e-3 -0.0749s-0.0517 9e-3 -0.0589 0.0212c-0.0136-0.0288-0.0312-0.0671-0.0512-0.11628-0.10141-0.20844-0.14776-0.28156-0.1943-0.35501-0.2072-0.55041-0.41411-1.1012-0.71417-1.6061-0.0926 0.42244-0.0899 0.7997-0.0899 1.1767 0.0616 0.21481 0.12274 0.429 0.19379 0.69608-0.0689-0.24424-0.14354-0.45423-0.23926-0.6382 0.083 0.41132 0.21384 0.76416 0.34003 1.0309-5e-3 -0.0194-9e-3 -0.0388-0.0134-0.0579 0.0138 0.0543 0.0278 0.11117 0.0424 0.17002 0.0797 0.26185 0.12337 0.32607 0.16692 0.39015 0 0 0.0101 0.0153 0.0264 0.046-0.0163-0.0196-0.0372-0.0351-0.0527-0.0212-0.0276 0.0246 0.0109 0.0873 0.0109 0.0873s0.056-5e-3 0.0661-0.0186c0.0144 0.03 0.0307 0.0676 0.0486 0.11213 0.10305 0.20828 0.15096 0.27867 0.19895 0.34934v0.00159c5.3e-4 5e-3 7e-3 0.0247 0.0476 0.0858 0.5348 0.53816 1.0151 0.99489 1.4955 1.4516v5.3e-4h5.3e-4v5.3e-4c3e-3 4e-3 0.02 0.0175 0.0987 0.0651 0.18336 0.0965 0.26165 0.12972 0.34003 0.16278 0 0 0.0129 5e-3 0.0382 0.0181-0.0131-3e-3 -0.0274-3e-3 -0.0351 3e-3 -3e-3 3e-3 -5e-3 7e-3 -6e-3 0.0124-4e-3 0.0338 0.0569 0.0636 0.0569 0.0636s0.0219-0.0415 0.0217-0.0594c0.026 0.0144 0.0585 0.0337 0.0977 0.0589 0.1914 0.0995 0.26842 0.12512 0.3452 0.15089 1.9069 0.46371 3.764 0.49294 5.642-0.28835-1.8379 0.78351-3.7082 0.76809-5.5991 0.36483 2.3959 1.0016 4.5934 0.82355 6.4968-0.80046 0.0482-0.0268 0.0964-0.0542 0.1447-0.0822 0.34059-0.19041 0.49653-0.3254 0.65215-0.46044 0 0 4e-3 -3e-3 0.0155-0.0108-4e-3 7e-3 -0.0123 0.0182-5e-3 0.0398 7.9e-4 2e-3 1e-3 4e-3 2e-3 5e-3l5.3e-4 5.3e-4v5.3e-4h5.3e-4v5.3e-4h0.00158v-5.3e-4h5.3e-4v-5.3e-4c3e-3 -7e-3 3e-3 -0.0367 3e-3 -0.047 0.012-9e-3 0.031-0.0224 0.0599-0.0444 0.09-0.0869 0.11876-0.12687 0.14728-0.16692 0 0 0.0174-0.0151 0.045-0.0367-0.0172 0.0184-0.0347 0.0432-0.0155 0.0568 0.0286 0.0204 0.0801-0.0264 0.0801-0.0264s-0.0229-0.0451-0.0372-0.0517c0.0144-0.0108 0.0301-0.0224 0.047-0.0341 0.067-0.0464 0.13746-0.15606 0.13746-0.15606s0.0136-0.0146 0.0377-0.0377c-0.0138 0.0195-0.0255 0.0434-6e-3 0.0537 0.031 0.0161 0.0765-0.0357 0.0765-0.0357s-0.0273-0.0378-0.0429-0.0444c0.0156-0.0141 0.0339-0.0296 0.0537-0.046 0.10221-0.10323 0.13126-0.14651 0.16071-0.18965h5.3e-4c2e-3 -5.3e-4 7e-3 -3e-3 0.015-8e-3 0 2.6e-4 3e-5 1e-3 0 2e-3v5.3e-4h5.3e-4v-5.3e-4l5.3e-4 -5.3e-4v-5.3e-4h-5.3e-4v-0.00106c0.0128-9e-3 0.0345-0.0255 0.0698-0.0589 0.10664-0.11058 0.14645-0.15769 0.18603-0.20464h5.3e-4l5.3e-4 5.3e-4h5.3e-4l5.3e-4 5.3e-4h0.00106l5.3e-4 -5.3e-4h5.3e-4c7e-3 -2e-3 0.0256-0.0141 0.0646-0.0796 0.0911-0.16669 0.12484-0.23713 0.15865-0.30748 0.0379-0.0792 0.0755-0.15837 0.13849-0.26251-0.0474 0.0908-0.0721 0.17245-0.0703 0.24856 0.11698-0.15409 0.16965-0.29484 0.17467-0.40928 0.0218-0.0316 0.046-0.0652 0.0723-0.10128 0.15365-0.19413 0.18469-0.26689 0.21601-0.33951 0 0 3e-3 -5e-3 0.015-0.0243-2e-3 7e-3 -0.0112 0.0251 0.0129 0.0346 3e-3 1e-3 5e-3 2e-3 6e-3 2e-3h5.3e-4l5.3e-4 -5.3e-4h0.00106v-5.3e-4l1e-3 -1e-3v-0.00106c0-2.6e-4 2e-5 -1e-3 0-2e-3 -2e-3 -9e-3 -0.0146-0.0276-0.0196-0.0326l-1e-3 -1e-3c0.0128-0.0211 0.0347-0.0581 0.0718-0.12144 0.10872-0.21509 0.14286-0.30344 0.17724-0.39171h5.3e-4c4e-3 -2e-3 0.0216-0.0183 0.0656-0.12092 0.0942-0.28401 0.13806-0.4503 0.1819-0.61702 5e-3 -1.3661 9e-3 -2.7323 3e-3 -4.3217-0.0736-0.3655-0.13678-0.50777-0.19999-0.65009 0 0-0.01-0.02061-0.0222-0.0584 0.0144 0.02585 0.0342 0.04844 0.0506 0.03514 0.0245-0.08455-7e-3 -0.11364-0.0667-0.08682-9e-3 -0.03378-0.0196-0.07506-0.0279-0.12247-0.0984-0.29842-0.17052-0.44952-0.24288-0.601 0 0-1e-3 -4e-3 -7e-3 -0.02016 3e-3 0.0046 8e-3 0.02016 0.0336 0.02585 2e-3 2.65e-4 4e-3 7.94e-4 5e-3 0.0011h5.3e-4l5.3e-4 -5.29e-4h0.00105v-0.001058l-5.2e-4 -5.29e-4c-5e-3 -0.0064-0.0362-0.02434-0.0398-0.02532-7e-3 -0.01939-0.0205-0.05629-0.0475-0.12506-0.0975-0.20451-0.14473-0.28019-0.19172-0.35605 0 0-5e-3 -0.0088-0.0155-0.03256 8e-3 0.01344 0.0245 0.03035 0.046 0.02532 1e-3 -2.65e-4 3e-3 -0.0011 4e-3 -0.0016h5.2e-4l0.00106-0.001058 5.3e-4 -0.0011v-5.29e-4h5.3e-4v-0.003175c-5e-3 -0.01177-0.0471-0.03261-0.0568-0.03307h-0.00159c-0.0121-0.02652-0.0303-0.06617-0.0553-0.12454-0.10441-0.21444-0.15043-0.29361-0.19689-0.37259v-0.001587c-2.7e-4 -0.0056-6e-3 -0.02635-0.0506-0.10025-0.19474-0.28855-0.33053-0.47867-0.46612-0.66869 0 0-4e-3 -0.0067-0.0119-0.02066 8e-3 0.0087 0.0219 0.01834 0.0408 0.01344 2e-3 -5.29e-4 3e-3 -0.0011 4e-3 -0.0016l5.2e-4 -5.3e-4h5.3e-4l5.3e-4 -5.29e-4v-5.29e-4h5.3e-4v-0.002646l-0.00106-0.001058c-8e-3 -0.0075-0.042-0.01738-0.0517-0.0181-7e-3 -0.01217-0.0147-0.02816-0.0243-0.04754-0.0265-0.05387-0.11162-0.11576-0.11162-0.11576-0.0181-0.01132-0.0362-0.02858-0.0579-0.05478 0.0192 0.01775 0.0402 0.02289 0.0656 0.01394-0.0144-0.103-0.0583-0.12795-0.11266-0.08475 5e-3 0.0093 9e-3 0.01588 0.0139 0.02376-0.0193-0.02748-0.0367-0.05022-0.0667-0.10025-0.59713-0.62058-1.1308-1.1337-1.664-1.6469-0.16205-0.10136-0.32374-0.20261-0.51263-0.32918 0.17647 0.10845 0.3402 0.1941 0.49868 0.25115-0.29017-0.21514-0.56768-0.36166-0.80615-0.46405-0.0412-0.02932-0.084-0.05991-0.12816-0.09199-0.32165-0.22633-0.51459-0.33131-0.70745-0.43667v-0.001058l-5.3e-4 -5.29e-4c-1.4e-4 -2.6e-4 -7.9e-4 -0.0013-1e-3 -0.0016v-5.29e-4h5.3e-4v-5.29e-4c8e-4 -5.29e-4 2e-3 -0.0016 3e-3 -0.0026-2e-3 7.94e-4 -3e-3 7.94e-4 -4e-3 0.0011h-5.3e-4v0.002646c-7e-3 -0.0055-0.0303-0.0217-0.11524-0.06563-0.19658-0.09261-0.27848-0.12544-0.36018-0.15864h-1e-3c-0.15353-0.05193-0.30715-0.10418-0.49196-0.17673 0.16862 0.0578 0.32102 0.09543 0.46199 0.10697-0.29094-0.13446-0.55386-0.2056-0.77153-0.23564-0.0438-0.01926-0.0893-0.03972-0.13694-0.06149-0.23059-0.12162-0.30675-0.14188-0.38292-0.16175-3.8852-1.0745-7.6365-0.66718-11.341 0.24701 0.0265-7e-3 0.0525-0.01519 0.0791-0.02222-0.62594 0.15384-1.2531 0.29103-1.8769 0.47129-0.50101 0.14458-1.0003 0.30468-1.5002 0.46147-1.9862 0.56504-3.9871 1.0716-5.9697 1.6474-1.2129 0.35229-2.3714 0.89012-3.469 1.3524-0.10065 0.03117-0.20174 0.06232-0.30283 0.09354-0.37965 0.08774-0.53763 0.1503-0.69556 0.2129-1.1986 0.29379-2.3978 0.58768-3.6323 0.87902 1.21-0.29768 2.3894-0.60193 3.5409-0.91829-0.88733 0.13269-1.6892 0.27898-2.4763 0.48266-1.2771 0.33052-2.5469 0.68909-3.7367 1.0459-0.15788 0.03473-0.31673 0.06979-0.47646 0.10439-0.34915 0.03401-0.48015 0.08312-0.61133 0.13229-4.7244 1.0641-9.498 1.1314-14.298 0.7214 4.8001 0.41008 9.5743 0.3428 14.238-0.78962-1.093 0.07264-2.1248 0.32174-3.159 0.33486-4.1291 0.05237-8.2859 0.32941-12.382-0.04134-4.7-0.42682-9.4197-1.1554-13.999-2.288-5.8738-1.4529-11.588-3.538-17.422-5.1687-5.9132-1.6529-11.882-3.1093-17.841-4.5915-1.2569-0.31256-2.579-0.36323-3.8711-0.53433zm27.486 2.0712c2.2138 0.57096 4.4341 1.1159 6.6513 1.6743 0.05373 0.01482 0.15153 0.05231 0.21342 0.07131-0.06797-0.01815-0.12618-0.02154-0.17466-0.0093-2.2523-0.61469-4.476-1.1649-6.69-1.7363zm-82.496 0.074929c0.37734 0.47892 0.92845 0.80975 1.6319 1.0129-0.49615 1.4496-0.95455 2.83-1.3369 4.2313 0.38232-1.4014 0.84033-2.7817 1.264-4.1718-0.6628-0.23629-1.1897-0.58708-1.5591-1.0723zm-12.602 1.6888c-0.61849 1.5363-1.1436 3.116-1.7141 4.7744 0.17815 1.5278 0.28603 2.9684 0.54777 4.3754-0.26184-1.4072-0.37262-2.8459-0.632-4.3289-1.0067 2.7376-2.049 5.4981-2.8665 8.323 0.81748-2.8255 1.8598-5.5936 2.866-8.4315 0.65116-1.5996 1.1802-3.1763 1.7989-4.7124zm102.84 0.15193c-0.03616 0.15241-0.03351 0.20415 0.05581 0.31006 0.29639 0.08007 0.50166 0.10648 0.69918 0.09198-0.0081-0.04069-0.0031-0.12351-0.0031-0.1235-0.23641-0.12634-0.4727-0.25304-0.75189-0.27854zm42.206 0.02429c-1.909 0.42646-3.8705 0.69922-5.8916 1.0583-0.12003 0.10144-0.12704 0.20333-0.15812 0.3762 0.028-0.15588 0.0356-0.25388-0.015-0.3421 0.0298-0.0093 0.0616-0.0185 0.0956-0.0279 2.0872-0.36414 4.0587-0.63786 5.9691-1.0645zm19.748 1.1358c-1.3294-0.0914-2.6581 0.03164-3.9646 0.33796-1.1029 0.25857-2.1823 0.61472-3.2778 0.90485 3.6752-0.90297 7.39-1.3092 11.211-0.293-1.3088-0.5526-2.6389-0.85842-3.9682-0.94981zm-34.811 1.016c-3.0545 0.10742-6.1112 0.16162-9.1669 0.24133 0.43386 0.04079 0.86741 0.08191 1.3405 0.12816-0.4727-0.04512-0.93692-0.08774-1.4283-0.13126 3.1313-0.07683 6.1985-0.13079 9.2547-0.23823zm-35.408 1.1203c3.7833 1.2464 7.646 2.2501 11.583 3.3765 0.14061 0.02511 0.24384 0.04897 0.3421 0.07906-0.07474-0.01844-0.13837-0.02141-0.18965-0.0072 0.18295 0.09194 0.3239 0.12496 0.42116 0.09715 0.04378 0.06104 0.1741 0.07475 0.23874 0.08475 0.21158 0.04538 0.35846 0.08065 0.55242 0.17777 0.15767 0.06298 0.27145 0.06841 0.46147 0.08268-0.18998-0.01418-0.30215-0.01722-0.41444-0.02066-0.17379-0.02697-0.34754-0.05403-0.59273-0.16536-0.0714-0.08436-0.20154-0.09819-0.20154-0.09819-0.14103-0.03324-0.28226-0.0666-0.57568-0.17156-3.9793-1.1851-7.8421-2.1886-11.625-3.4349zm12.948 3.808c-0.19397-0.09712-0.34093-0.13251-0.48111-0.09353 0.18053 0.10132 0.35437 0.1283 0.48111 0.09353zm67.241-0.2837-5.3e-4 5.29e-4v0.001059h5.3e-4l5.3e-4 5.29e-4c4e-3 0.0036 0.0195 0.0097 0.0212 0.0098v-5.29e-4c-5.3e-4 -2.65e-4 -3e-3 -0.0011-7e-3 -0.0026-8e-3 -0.0033-0.0128-7e-3 -0.0145-0.0088zm-66.76 0.36845c0.03082 6e-3 0.06175 0.01162 0.0925 0.01757 1.2537 1.2961 2.5076 2.5924 4.0039 4.1393-1.4985-1.5491-2.7542-2.8469-4.0964-4.1568zm1.3911 0.27027c0.95372 0.1861 1.898 0.37116 2.8949 0.56431 0.24917 0.02045 0.45312 0.03919 0.6537 0.06563-0.18185-0.01863-0.34476-0.01635-0.48369 0.01138 0.0129 0.0029 0.0244 0.0045 0.0372 0.0072-0.0548-0.0099-0.0925-0.01225-0.15297-0.02479-1.0443-0.23554-2.0093-0.43543-2.9492-0.62373zm3.9026 0.68781h0.00158c0.11068 0.06713 0.16297 0.0725 0.29352 0.08785 0.44763 0.04269 0.82104 0.07551 1.2552 0.16898-0.43407-0.09342-0.804-0.12404-1.1152-0.08785 0.44791 0.10121 0.83397 0.13171 1.1519 0.09612 0.19597 0.07237 0.32406 0.07865 0.54777 0.09405 0.46609 0.03976 0.83995 0.07055 1.2764 0.16278-0.4364-0.09221-0.80763-0.12196-1.1193-0.08423 0.44493 0.09799 0.82822 0.12612 1.1436 0.0894 0.11882 0.06844 0.16968 0.07225 0.4129 0.08423 1.622 0.10567 3.0824 0.18485 4.5268 0.30127-1.4443-0.11638-2.8994-0.1947-4.4514-0.29146 1.1547 0.20583 2.3781 0.51287 3.6225 0.66249-1.2514-0.14987-2.5067-0.45824-3.8137-0.67076-0.12732-0.01333-0.17851-0.01704-0.22944-0.02066-0.38328-0.02808-0.7663-0.05628-1.3069-0.1633-0.2853-0.08531-0.41356-0.09183-0.54157-0.09818-0.38587-0.03041-0.7715-0.06061-1.2976-0.17208-0.19259-0.08617-0.2448-0.09156-0.29714-0.09664-0.16766-0.0098-0.34957-0.02545-0.55346-0.05168 0.1862 0.02016 0.35286 0.01828 0.49351-0.01035zm62.5 1.3198c0.0412 1.2904 0.0807 2.6874 0.0532 4.1445-0.063-1.3056-0.0588-2.672-0.0532-4.1445zm-31.168 1.1069c-2.3646 0.82505-4.8198 1.6599-7.3561 2.4562 2.3679-0.84103 4.8167-1.6439 7.3561-2.4562zm-40.526 0.99271c1.5154 0.35671 3.0327 0.70643 4.5496 1.0718 0.45455-0.19019 0.99061-0.37077 1.4547-0.54519-0.48969 0.19858-0.96003 0.40131-1.4294 0.64854 0.32512 0.11988 0.6562 0.19836 0.9865 0.28009-0.34591-0.0702-0.68514-0.10307-1.0371-0.19379-1.5173-0.43746-3.0027-0.87433-4.5243-1.2614zm29.118 2.0123c-0.15398 0.0528-0.2906 0.11526-0.40308 0.17828-7.9e-4 1.8e-4 -2e-3 2.7e-4 -3e-3 5.3e-4 -0.21714 7e-3 -0.34299 0.0168-0.56379 0.0295-0.38623 0.0694-0.70504 0.13708-1.0718 0.20257 0.35221-0.0647 0.64461-0.13802 0.90331-0.25425 0.0395-5e-3 0.0798-0.01 0.12092-0.0145 0.27001 0.0535 0.39594 0.0429 0.52193 0.0326 0.15879-0.061 0.31753-0.12203 0.49506-0.17466zm-1.71 0.26252c-0.202 0.0545-0.38473 0.11915-0.54053 0.18448-8e-4 1.5e-4 -2e-3 2.7e-4 -3e-3 5.3e-4 -0.22331 6e-3 -0.34872 0.0154-0.56896 0.0274-0.61318 0.0721-1.1573 0.14247-1.7606 0.21136 0.59045-0.0689 1.1079-0.14645 1.5834-0.27544 0.0395-3e-3 0.0796-6e-3 0.11989-9e-3 0.27909 0.0617 0.4045 0.052 0.5302 0.0424 0.20623-0.0635 0.41268-0.12692 0.63924-0.18138zm-2.2159 0.25941c-0.34889 0.0584-0.67361 0.1283-0.96687 0.19896-1e-3 1.1e-4 -3e-3 2.6e-4 -4e-3 5.3e-4 -0.16854 3e-3 -0.27893 7e-3 -0.40825 0.0119 0.12272-5e-3 0.21091-0.01 0.29921-0.014 0.35208-0.0695 0.70386-0.13888 1.0795-0.1974zm-134.28 0.0284c-0.88085 3.2877-1.5354 6.6385-2.2123 10.008 0.08034 0.44402 0.11137 0.85991 0.16846 1.2904-0.06651-0.40748-0.13436-0.81466-0.24133-1.2165-0.87643 4.3416-1.6312 8.6594-2.3265 12.984 0.69501-4.3246 1.4454-8.6446 2.2376-13.035 0.83172-3.3912 1.4928-6.7427 2.374-10.03zm180.53 0.27751v0.00105l5.3e-4 5.3e-4 5.3e-4 -5.3e-4h5.3e-4v-0.00105h-0.00106zm5.3e-4 2e-3 -5.3e-4 5.3e-4c-4e-5 2e-4 1e-5 1e-3 0 2e-3v5.3e-4l5.3e-4 5.3e-4c7.9e-4 3e-3 4e-3 7e-3 0.0114 0.0119 2e-3 2e-3 4e-3 3e-3 5e-3 3e-3l5.3e-4 5.3e-4h0.00105v-5.3e-4c-2e-3 -3e-3 -0.0148-0.0135-0.0181-0.0181zm-1.0309 1.8009-0.00106 0.00106v5.3e-4l-5.3e-4 5.3e-4c-2.7e-4 1e-3 -5.3e-4 4e-3 -5.3e-4 7e-3h0.00106v-5.3e-4h0.00106l5.3e-4 -5.3e-4h0.00105v-5.3e-4h5.3e-4v-5.3e-4h5.3e-4v-0.00106l5.3e-4 -5.3e-4v-0.00158l-5.3e-4 -5.3e-4v-0.00159h-5.3e-4v-5.3e-4l-5.3e-4 -5.3e-4v-5.3e-4h-0.00105v-5.3e-4zm-3e-3 0.0103v0.00106l-5.3e-4 5.3e-4c-3e-5 2.3e-4 1e-5 1e-3 0 2e-3 3e-5 2e-3 2.5e-4 3e-3 5.3e-4 4e-3v5.3e-4h5.3e-4v-5.3e-4l5.3e-4 -5.3e-4v-5.3e-4c-1e-5 -1e-3 -1.4e-4 -3e-3 -5.3e-4 -6e-3zm-0.25993 0.24702c-3e-3 4e-3 -0.0105 0.0107 5.3e-4 0.0284 7.9e-4 1e-3 2e-3 3e-3 3e-3 4e-3l5.3e-4 5.2e-4 5.3e-4 5.3e-4h5.3e-4v5.3e-4h5.3e-4v-5.3e-4h5.3e-4v-0.00105c2.6e-4 -6e-3 -4e-3 -0.0247-6e-3 -0.0326zm-10.645 0.0212v5.3e-4h5.3e-4v-5.3e-4zm7e-3 2e-3c3e-3 5.3e-4 5e-3 2e-3 7e-3 2e-3 -3e-3 -7.9e-4 -5e-3 -1e-3 -7e-3 -2e-3zm0.0124 4e-3c3e-3 1e-3 5e-3 2e-3 6e-3 3e-3 2.2e-4 2e-4 8e-4 7.9e-4 1e-3 1e-3v5.3e-4h0.00106v-0.00158l-0.00159-0.00159c-2e-3 -5.3e-4 -4e-3 -7.9e-4 -7e-3 -2e-3zm2.5146 0.71572c-6e-3 2e-3 -0.0194 0.0145-0.0238 0.0181 2e-3 5.3e-4 4e-3 2e-3 7e-3 3e-3 2.4e-4 0 1e-3 3e-5 2e-3 0h0.00159v-5.3e-4c3e-3 -1e-3 8e-3 -5e-3 0.0124-0.0124 2e-3 -3e-3 2e-3 -4e-3 3e-3 -6e-3v-0.00212h-0.00106zm-0.96945 0.8201c-2.7e-4 1.2e-4 -8e-4 5.3e-4 -1e-3 5.3e-4 -5e-3 2e-3 -0.013 7e-3 -0.016 0.0104l-5.3e-4 5.3e-4v0.00106h-5.3e-4v5.3e-4h5.3e-4v5.3e-4h0.00158c1e-3 -7e-5 3e-3 -5.3e-4 5e-3 -2e-3 8e-3 -3e-3 0.013-4e-3 0.015-5e-3l0.00106-0.00106v-5.3e-4h-5.3e-4v-5.3e-4c-1.3e-4 -1.3e-4 -8e-4 -1e-3 -1e-3 -2e-3l-5.3e-4 -5.3e-4v-5.2e-4l-5.3e-4 -5.3e-4v-5.3e-4l-5.3e-4 -5.3e-4h-0.00106v-5.3e-4h-5.3e-4zm-109.69 1.4914s-0.02106 0.0349-0.03721 0.0599c0.02236-0.0163 0.03721-0.0599 0.03721-0.0599zm-0.03721 0.0599c-0.0013 7.9e-4 -0.0024 2e-3 -0.0036 3e-3 -0.0099 6e-3 -0.01471 0.0103-0.01654 0.0134v0.00159h-5.29e-4v0.0037l5.29e-4 5.3e-4v5.3e-4l5.29e-4 5.3e-4v5.3e-4c5.29e-4 5.3e-4 0.0016 2e-3 0.0021 2e-3h0.001058v-5.3e-4c0.0026-2e-3 0.0093-0.0123 0.01707-0.0243zm-46.572 0.70745c-0.0055298 0.0354-0.011007 0.0706-0.016536 0.10594-0.10152 0.0185-0.23624 9e-3 -0.32091 0.0419 0.085696-0.0372 0.22394-0.045 0.33745-0.1478zm-18.692 18.278c-0.42538 2.7467-0.78192 5.5042-1.1731 8.2564-0.0163 0.13224-0.05779 0.32639-0.07906 0.47077 0.01508-0.15727 0.01386-0.30624-0.0083-0.44959 0.47202-2.7718 0.83455-5.5308 1.2604-8.2775zm11.833 5.4715c0.88008 0.91055 1.8706 1.3583 3.145 1.3762-0.0046 0.0373-0.00934 0.0744-0.013943 0.11162-1.2667-0.11638-2.2536-0.57789-3.1311-1.4878zm50.296 2.4701c-2.0877-0.0699-2.9044 0.44644-3.0417 1.8728 0.41674-0.15204 0.76192-0.27772 1.1896-0.44907 0.6098-0.45589 1.1368-0.86677 1.8521-1.4237zm0.77773 4.1708c0.02833 0.0981 0.06343 0.15584 0.0987 0.21291-0.04021-0.065-0.08018-0.12978-0.1204-0.19482 0.0074-7e-3 0.01453-0.0129 0.0217-0.0181zm-64.87 0.41393c-0.10846-5e-3 -0.17997 0.0203-0.25632 0.0806-0.0048 0.21046 0.0031 0.33076 0.08062 0.52039 0.1044 0.46569 0.13932 0.86225 0.17415 1.2588 0.94104-0.39655 0.47701-1.1185 0.24546-1.8195-0.10086-0.0237-0.17884-0.0373-0.24391-0.0403zm-0.0093 1.9699c-0.0053 0.46214-0.0082 0.8183 0.07028 1.2537 0.07429 0.49694 0.09196 0.96831 0.12299 1.4247-0.03751-0.44842-0.07658-0.90075-0.19327-1.3529-0.33382 1.3938-0.51884 2.7954-0.69711 4.1977 0.17827-1.4022 0.36305-2.8035 0.61547-4.2773 0.07312-0.42744 0.07638-0.78375 0.08165-1.2459zm-0.69195 5.5237c-0.298 2.3441-0.59175 4.6882-0.88729 7.0326-0.0315 0.22756-0.06289 0.4554-0.1695 0.83974-0.08233 0.35689-0.0899 0.55693-0.09715 0.75706-0.03032 0.39536-0.06051 0.79084-0.1695 1.3426-0.08251 0.27511-0.08608 0.39383-0.08992 0.51263-0.01214 0.212-0.04987 0.4682-0.06615 0.6873 0.0068-0.21083 0.01209-0.42063-0.0011-0.60875 0.07062-0.19717 0.07466-0.31608 0.08837-0.52348 0.01728-0.1994 0.04941-0.37309 0.06873-0.55346-0.0053 0.14104-4e-3 0.27506 0.0098 0.39688 0.09909-0.4631 0.12973-0.85805 0.09353-1.1818 0.07373-0.2717 0.08055-0.47195 0.09973-0.77153 0.02548-0.19456 0.05208-0.3542 0.08527-0.5116-0.02395 0.13708-0.02865 0.2564-0.0098 0.3545 0.09461-0.28488 0.12588-0.51217 0.09302-0.68058 0.35989-2.4036 0.65385-4.7479 0.95188-7.0921zm63.84 7.8047c-0.65738 0.65021-1.347 1.2719-2.019 1.9921-0.01696 0.32065-0.03601 0.56033-0.04289 0.64595 0.0067-0.0855 0.02259-0.32373-0.01603-0.61908-0.12439 4e-3 -0.21638 0.0412-0.30748 0.0935 0.08825-0.0553 0.1725-0.10883 0.30541-0.18448 0.73043-0.65908 1.4225-1.278 2.08-1.928zm-2.5812 2.2794c-0.08422 0.58039-0.24449 1.2014-0.44907 1.9089 0.09468-0.5651 0.23401-1.2167 0.44907-1.9089zm-62.824 3.5238c-0.20508 1.8729-0.42249 3.7442-0.63614 5.6162 0.07678 0.35762 0.21128 0.71522 0.24495 1.0728-0.03488-0.35626-0.17822-0.7054-0.32194-0.99787 0.28817-1.9442 0.50799-3.8181 0.71314-5.6911zm15.001 3.1244c-0.00553 0.0341-0.011007 0.0682-0.016536 0.10232-0.4452 0.15053-0.89022 0.30051-1.1813 0.39894 0.2919-0.0987 0.73861-0.25028 1.1979-0.50126zm22.398 7.0885c1.9974-0.0247 4.0004 0.35494 6.1877 0.62942 1.6847 0.37676 3.1724 0.74795 4.6819 0.97565-1.5096-0.2277-2.9975-0.59851-4.6059-0.90641-1.032-0.0492-2.0335-0.14426-3.0184-0.20464 0.9574 0.0523 1.9079 0.12297 2.8319 0.13385-2.0764-0.27297-4.0795-0.65248-6.0771-0.62787zm-5.3082 0.72295c-0.56425 0.17341-1.0284 0.34743-1.4924 0.52142 0 0 0.020796 0.0312 0.031007 0.0465 0.48837-0.12436 0.96618-0.26411 1.5115-0.47129 0.067149-0.0673 0.050096-0.0966-0.050125-0.0966zm21.051 1.6655c1.3594 0.19591 2.7196 0.34334 4.0819 0.36794 0.45476 8e-3 0.89538-0.0177 1.3177-0.0765-0.42239 0.0588-0.86301 0.0852-1.3177 0.077-1.3621-0.0246-2.7225-0.17246-4.0819-0.36845zm-26.251 1.4914c-0.00574 5e-3 -0.012356 9e-3 -0.018098 0.0134-1.4326 1.2022-2.7778 2.5079-4.1822 3.7445-0.044148 0.0389-0.085005 0.0778-0.12299 0.11678v-5.3e-4c0.037984-0.0389 0.07884-0.0774 0.12299-0.11627 1.4044-1.2367 2.7495-2.5428 4.1822-3.745 0.00566-5e-3 0.012409-8e-3 0.018098-0.0129zm-13.914 1.3446c-0.35475 1.9577-0.8003 3.9069-1.2159 5.9624-0.01069 0.10321-0.02453 0.17126-0.05168 0.22479 0.01119-0.03 0.0069-0.0567-0.01344-0.0801-0.10566 0.087-0.13978 0.15488-0.09973 0.20515-0.40476 1.4493-0.75888 2.869-1.1234 4.3951-0.44857 1.6486-0.88657 3.1909-1.3668 4.8281-0.03519 0.18945-0.05784 0.33882-0.08682 0.48524 0.01831-0.12131 0.01812-0.22923-0.0011-0.31833 0.0113-0.0364 0.02395-0.0748 0.03772-0.11523 0.53015-1.689 0.96813-3.2315 1.3167-4.7573-0.11371 0.0293-0.16667 0.0379-0.1974 0.0589 0.03088-0.0225 0.08536-0.0431 0.20826-0.16536 0.45405-1.5426 0.80814-2.9622 1.1622-4.3816 0.01064-0.0799 0.04426-0.1478 0.16743-0.34882 0.46028-2.0838 0.90903-4.0351 1.264-5.9929zm20.948 0.37001c0.0016-6e-5 0.0036 5e-5 0.0052 0-0.04033 2e-3 -0.07888 7e-3 -0.11834 0.01 0.03791-3e-3 0.07392-8e-3 0.11317-0.01zm-34.343 7.985c-0.16102 0.059-0.32163 0.11823-0.48266 0.17725-0.01431-0.0197-0.02829-0.0393-0.04186-0.0584 0.21637-6e-3 0.37027-0.0623 0.52452-0.11886zm66.788 6.6745c-0.02154 0.18712-0.04118 0.37458-0.05891 0.56276 0.0027 0.33062 0.0056 0.66096-0.01085 1.0139 0.0063-0.33002-0.0093-0.64235-0.04134-0.9276-0.06618 0.62418-0.08349 1.1681-0.02379 1.6795-0.0066 0.0507-0.01352 0.102-0.02119 0.15399-0.10704 0.33388-0.10231 0.53651-0.09715 0.73949 0.02522 0.69668 0.05086 1.3933 0.05839 2.1296-0.01693-0.7125-0.05759-1.3946-0.12092-2.0464-0.02156 1.2003 0.01524 2.3235 0.11265 3.3693-0.0016 0.0714-0.0035 0.14305-0.0057 0.21549-0.05452 0.38467-0.02703 0.58595 5.29e-4 0.78703 0.05204 0.26361 0.10397 0.52709 0.14314 0.81855-0.04523-0.26537-0.10611-0.50682-0.17725-0.7183 0.03728 0.54123 0.10568 0.9904 0.23616 1.3787 0.0024 0.0538 0.0039 0.10913 0.0052 0.16536 2.65e-4 0.0326 5.3e-4 0.0646 0.0011 0.0966zm-57.421 0.93069c-0.01672 0.11762-0.01397 0.21956 0.01085 0.30851-0.08394 0.10075-0.10208 0.16287-0.14004 0.32091-0.02212 0.13395-0.04016 0.23354-0.06408 0.32969 0.01434-0.0763 0.01251-0.13919-0.0041-0.1881-0.0717 0.17696-0.09533 0.30791-0.06253 0.3974-0.07345 0.16843-0.09043 0.29494-0.13229 0.51418-0.0098 0.0921-0.02138 0.15072-0.04754 0.19585 0.01347-0.0288 0.0082-0.0551-0.01497-0.078-0.08209 0.0709-0.10929 0.1252-0.07596 0.16743-0.06344 0.15052-0.08331 0.28067-0.12712 0.50591-0.0088 0.0937-0.0204 0.15337-0.04651 0.19947 0.01283-0.0288 0.0075-0.055-0.01601-0.078-0.08329 0.0736-0.11156 0.12934-0.07855 0.17157-0.06294 0.15078-0.08157 0.27968-0.12506 0.50281-0.01011 0.0928-0.02164 0.15148-0.04754 0.19688 0.0132-0.0288 0.0079-0.055-0.01498-0.0775-0.08123 0.0715-0.10816 0.12649-0.07493 0.16795-0.05308 0.0691-0.06261 0.11679-0.09302 0.23461-0.0556 0.16694-0.12239 0.31311-0.17725 0.46406 0.03687-0.13051 0.06492-0.25746 0.07648-0.38086-0.02667 0.0535-0.04815 0.10591-0.07131 0.15865 0.03181-0.0774 0.05285-0.1459 0.09147-0.22893 0.11076-0.13113 0.12082-0.17864 0.13074-0.22634 0.0099-0.0629 0.03677-0.11735 0.14314-0.28319 0.08096-0.24847 0.09946-0.37714 0.11782-0.50591 0.01156-0.0642 0.03934-0.12033 0.14676-0.28939 0.08236-0.25127 0.10227-0.38079 0.12196-0.51056 0.01045-0.063 0.03782-0.11756 0.14469-0.28112 0.07961-0.24424 0.09662-0.37104 0.11369-0.49765 0.0236-0.13128 0.04698-0.26232 0.13849-0.53485 0.08606-0.2037 0.10432-0.26617 0.12247-0.32866 0.01302-0.10698 0.02609-0.21392 0.05529-0.34675zm-1.4196 4.2618c-0.07751 0.21783-0.12809 0.4254-0.14935 0.60978-0.08107 0.17714-0.09677 0.29966-0.13487 0.51159-0.0109 0.0953-0.02447 0.15667-0.05374 0.20619 0.01685-0.0334 0.01296-0.063-0.01138-0.0884-0.09299 0.0803-0.12284 0.14199-0.08526 0.18758-0.05427 0.0723-0.06178 0.11834-0.08733 0.23203-0.01363 0.0862-0.03077 0.14627-0.06304 0.19895 0.02019-0.0385 0.01844-0.0715-0.0052-0.0992-0.1113 0.0907-0.14463 0.16251-0.09973 0.21445-0.06482 0.14999-0.07919 0.26736-0.11472 0.47077-0.01146 0.0902-0.02609 0.15047-0.05323 0.20103 0.01318-0.0324 0.0085-0.0608-0.01394-0.0847-0.09973 0.0865-0.1297 0.15334-0.08785 0.20102-0.04773 0.03-0.06462 0.15416-0.08113 0.21446-0.13949 0.37197-0.29351 0.73121-0.43408 1.0898 0.12384-0.34306 0.23744-0.68067 0.32711-1.0129-0.04088 0.0901-0.06934 0.17653-0.108 0.26614 0.04751-0.11315 0.07348-0.21089 0.12454-0.3266 0.10692-0.0771 0.12402-0.20102 0.12402-0.20102 0.0059-0.0777 0.03595-0.14466 0.1571-0.31729 0.08134-0.23366 0.09548-0.35085 0.10955-0.46819 0.0058-0.0846 0.03873-0.15632 0.16795-0.31471 0.07606-0.14531 0.08385-0.1917 0.09147-0.23771 0.0091-0.0719 0.03856-0.13382 0.154-0.30386 0.08089-0.24016 0.0965-0.362 0.11214-0.48421 0.06076-0.21247 0.1308-0.43325 0.21497-0.66507zm-1.7575 4.6328c-0.08383 0.25102-0.17192 0.50563-0.2403 0.74465-0.13842 0.27067-0.20887 0.47809-0.32091 0.7581-0.0813 0.21925-0.15535 0.4272-0.22324 0.63252 0.05571-0.17453 0.11144-0.35613 0.16743-0.51935 0.01844-0.0376 0.03726-0.0753 0.05581-0.11317 0.11204-0.28001 0.18266-0.48746 0.25321-0.69505 0.09101-0.26072 0.21314-0.54423 0.30799-0.8077zm-2.0857 4.5982c-0.03359 0.0353-0.04277 0.0688-0.02635 0.10076-0.06845 0.0712-0.08156 0.12167-0.11214 0.33952-0.0092 0.0277-0.01873 0.0554-0.02791 0.0827-0.72267 0.92877-1.4554 1.9303-2.1554 2.958 0.7018-1.0305 1.4375-2.0424 2.1782-3.1321 0.03575-0.12565 0.04912-0.17643 0.06253-0.22686 0.01545-0.0448 0.03944-0.0836 0.08113-0.12195zm23.207 12.558c7.937e-4 1e-3 0.00238 2e-3 0.0031 3e-3h0.0010583v5.3e-4h0.0010584l5.291e-4 -5.3e-4c-0.00185-1e-3 -0.00376-2e-3 -0.00569-3e-3zm0.00265 0.0139-5.292e-4 5.3e-4 -5.291e-4 5.3e-4h-0.0010584v5.2e-4c0.00212 4e-3 0.00418 7e-3 0.00619 0.0114 2.275e-4 -6e-3 -5.292e-4 -0.01-0.00106-0.0119l-0.0010584-0.00106h-0.0015892zm0.00413 0.0129c-5.292e-4 0.0104-0.00349 0.0289-0.00931 0.0589 0.069821 0.2149 0.155 0.35101 0.2403 0.48576-0.0027-5.3e-4 -0.00566-2e-3 -0.00775-2e-3h-5.291e-4v0.00106l5.291e-4 5.3e-4c0.00561 8e-3 0.041857 0.0388 0.041857 0.0388s-0.00794-0.04-0.015505-0.0491l-5.291e-4 -5.3e-4h-0.0010702v-5.2e-4h-0.0010583v5.2e-4h-0.0010583v5.3e-4l-0.00212 2e-3c-0.00275 5e-3 -0.00593 8e-3 -0.00826 9e-3h-0.0010583l-5.292e-4 5.2e-4h-0.00105-0.00106c-0.00265-9e-3 -0.00656-0.0307-0.010848-0.0806-0.079433-0.20333-0.15228-0.33381-0.22118-0.46405zm-51.269 3.8844c2.3014 0.0737 4.5983 0.28688 6.951 0.65732-4.4315 6.1582-9.6319 10.568-17.439 10.746-0.73848 0.0169-1.4969-0.0915-2.219-0.2589-1.839-0.42627-3.2349-1.4008-3.6463-3.3709-0.41751-1.9986 0.24306-3.6513 1.7896-4.9366 1.8178-1.5108 4.0072-2.107 6.2911-2.4412 0.43238-0.0632 0.86196-0.14464 1.2929-0.21756 2.3717-0.18642 4.6781-0.25198 6.9794-0.17828zm54.118 3.1688c1.3603 0.38716 2.7227 0.76158 4.116 1.1384 0.20152 0.0276 0.31636 0.0483 0.43098 0.0692 3.6547 0.90355 7.3093 1.8075 11.105 2.7848 0.18705 0.0838 0.23281 0.0933 0.27854 0.10335 0.92107 0.20635 1.8419 0.41258 2.9233 0.68936 0.2771 0.0917 0.39386 0.1132 0.51056 0.13436 0.48649 0.10687 0.97293 0.21352 1.617 0.38809 0.27527 0.0863 0.39334 0.10499 0.51108 0.12351 1.8837 0.3787 3.7675 0.75743 5.7934 1.2103 0.18686 0.0837 0.2314 0.0933 0.27595 0.10284 0.20042 0.0207 0.41715 0.0501 0.65784 0.092-0.23213-0.0383-0.44198-0.0446-0.64389-8e-3h-5.29e-4c-0.0583-0.0931-0.10247-0.10321-0.21497-0.12041-0.53026-5e-3 -1.0265 0.0713-1.4852 0.0139 0.45639 0.0561 0.93614-0.0287 1.3426-0.0879-1.9581-0.44517-3.8415-0.8239-5.6782-1.1229-0.1647-0.0982-0.28275-0.11703-0.48989-0.14005-0.54949-0.0869-1.0264-0.1701-1.509-0.31574 0.48117 0.14499 0.94388 0.22217 1.3513 0.24805-0.55462-0.17004-1.0411-0.27698-1.51-0.29818-0.13431-0.10673-0.25112-0.12782-0.45682-0.15296-1.0263-0.20076-1.9632-0.39734-2.9476-0.67489-0.09274-0.0908-0.13882-0.10087-0.25425-0.11886-2.5485-0.50593-5.0402-0.96403-7.5086-1.5167 2.4683 0.55264 4.9565 1.0087 7.3675 1.4428-3.7261-0.96928-7.3808-1.8728-11.016-2.6862-0.13411-0.11102-0.24908-0.13228-0.51418-0.0853-0.03872-5e-3 -0.07727-0.0105-0.11576-0.016-1.286-0.41039-2.5931-0.79556-3.9367-1.1968zm72.064 0.60048-5.3e-4 5.2e-4h-5.29e-4v5.3e-4h-5.29e-4l-5.29e-4 5.3e-4h-5.29e-4l-5.29e-4 5.3e-4v5.3e-4h-5.3e-4v0.00106h5.3e-4v5.3e-4l5.29e-4 5.3e-4h5.29e-4c0.0016 2.6e-4 0.0044 5.3e-4 0.0083 0v-5.3e-4l-0.001058-0.00106v-0.00106l-5.3e-4 -5.3e-4v-5.3e-4l-5.29e-4 -5.3e-4 -5.29e-4 -5.2e-4h-0.003175zm0.01138 4e-3c-0.0011 6e-5 -0.0024 2.5e-4 -0.0041 5.3e-4l5.29e-4 5.3e-4h5.29e-4c0.0013 2.7e-4 0.0034 1.3e-4 0.0047 0 1.3e-4 -3e-5 0.0013-2.6e-4 0.0016-5.3e-4h5.29e-4v-5.3e-4h-5.29e-4c-5.3e-4 -6e-5 -0.0019-7e-5 -0.0031 0zm0.22117 0.1788s-0.02289 0.0151-0.03876 0.0243l5.29e-4 5.3e-4h5.29e-4c2.59e-4 7e-5 0.0013 5.3e-4 0.0016 5.3e-4 0.02397 0.0116 0.03617-0.0253 0.03617-0.0253zm-0.05116 0.0202-5.29e-4 5.3e-4v0.00106h-5.29e-4c-2.2e-5 1e-3 5.29e-4 4e-3 5.29e-4 6e-3v5.3e-4l-5.29e-4 5.3e-4 -5.3e-4 5.3e-4v0.00159h-5.29e-4v5.2e-4h0.001059c0.0024-7.9e-4 0.0072-3e-3 0.01291-7e-3 -5e-3 -2e-3 -0.0085-4e-3 -0.01035-4e-3h-0.001058zm-43.879 6.0606c0.08387 0.0165 0.15312 0.0254 0.24857 0.0481 0.1904 0.0839 0.24112 0.0938 0.29145 0.10387 0.05727-5.3e-4 0.14434 5e-3 0.21394 7e-3 -0.07664 3e-3 -0.13308 0.0152-0.17053 0.0496-0.09415-0.0664-0.14453-0.0763-0.2713-0.0956-0.2407-0.0163-0.4527-0.0358-0.65939-0.0641 0.18724 0.0191 0.36406 0.0162 0.51935-0.01-0.05982-0.0156-0.11542-0.0267-0.17208-0.0388zm0.9369 0.16433c0.10454 0.0161 0.19385 0.0297 0.28474 0.0475-0.07179-0.0139-0.13934-0.0231-0.20671-0.032 5.29e-4 2e-3 0.02127 0.0942 0.11369 0.14263 0.21383 0.0455 0.33418 0.0421 0.40204-0.0212-0.03457-0.0134-0.06579-0.0232-0.09767-0.0336 0.05407 0.015 0.09902 0.0236 0.16381 0.0455 0.16207 0.0825 0.20564 0.093 0.24908 0.10387 0.27332 0.021 0.54614 0.0421 0.85163 0.0899-0.29972-0.0411-0.57191-0.0456-0.83613-5e-3h-5.29e-4c-0.05886-0.0954-0.1019-0.10644-0.21136-0.12919-0.18655-8e-3 -0.30742-5e-3 -0.51832-3e-3 -0.12085-0.019-0.21481-0.0413-0.30489-0.0682 0.07455 0.0187 0.144 0.0256 0.21187 0.0191-0.0029-0.0475-0.0236-0.14043-0.10128-0.15658zm40.073 0.27078-5.3e-4 5.3e-4h-0.001587v5.3e-4h-5.29e-4v5.3e-4h5.29e-4v5.3e-4c6.6e-5 2.4e-4 5.29e-4 1e-3 5.29e-4 2e-3 0.0011 2e-3 0.0037 6e-3 0.0062 9e-3 -0.0038-7e-3 -0.0041-0.0103-0.0041-0.0119v-0.00106zm-38.981 0.10232c0.36184 0.0664 0.70757 0.0721 1.0056 0.0315 0.0098 2e-3 0.01958 5e-3 0.02946 7e-3 0.08541 0.0711 0.12299 0.093 0.12299 0.093 0.11229 0.012 0.27442 0.0455 0.39481 0.061-0.12119-8e-3 -0.23402-9e-3 -0.33383 6e-3h-5.29e-4c-0.06079-0.067-0.09804-0.089-0.11834-0.0966-0.3742-0.0197-0.73324-0.0331-1.1002-0.10129zm1.834 0.23513c0.13152 0.0214 0.21715 0.0233 0.38189 0.0589 0.27371 0.0834 0.3918 0.10089 0.51005 0.11782 0.62206 0.0877 1.2443 0.17497 1.972 0.27802 0.20436 0.0205 0.38084 0.0423 0.56586 0.0718-0.1623-0.0248-0.30908-0.0279-0.45062-0.0109 0.0086 0.0407 0.01349 0.1195 0.08578 0.13746-0.02431-3e-3 -0.04873-6e-3 -0.07286-9e-3 -0.0051-0.0261-0.02701-0.0952-0.11886-0.14366-0.73708-0.14847-1.359-0.23657-1.9565-0.22789h-5.29e-4c-0.14269-0.11343-0.26085-0.13051-0.4687-0.15142-0.33491-0.0281-0.60497-0.0532-0.90279-0.11937 0.29464 0.0649 0.54465 0.0815 0.74724 0.0532-0.10688-0.0277-0.19616-0.0384-0.29197-0.0553zm3.5564 0.54932c0.08478 0.0155 0.15949 0.0251 0.26045 0.0491 0.26919 0.0847 0.38898 0.0969 0.5085 0.10904 0.26712 0.0177 0.53392 0.0353 0.82631 0.0775-0.28443-0.0361-0.53642-0.0408-0.75396-0.016h-5.29e-4c-0.19175-0.0738-0.31159-0.0861-0.5209-0.10594-0.23497-5e-3 -0.41018-6e-3 -0.62838-6e-3 0.21356-2e-3 0.36684-0.0124 0.47956-0.0661-0.05974-0.017-0.11587-0.0296-0.17105-0.0413zm1.9833 0.30438h5.29e-4c0.0076 2e-3 0.01455 4e-3 0.02222 5e-3 0.07685 0.0745 0.10077 0.0837 0.10077 0.0837 0.14524 0.012 0.34835 0.0464 0.50281 0.062-0.15574-8e-3 -0.30244-7e-3 -0.43563 9e-3h-0.0011c-0.06621-0.0711-0.08982-0.0799-0.10077-0.0863-0.17233-0.016-0.35665-0.0439-0.53175-0.0631 0.15984 9e-3 0.30737 5e-3 0.44287-0.0103zm-17.32 7.0409c1.3114 1.0269 2.6226 2.0537 3.9341 3.0804 3.2136 0.58671 6.4064 1.4122 9.6464 1.6965-3.2401-0.28432-6.4318-1.1099-9.7534-1.6986h-5.29e-4c-1.2182-1.025-2.517-2.0515-3.8266-3.0784z" fill="#d69214"/>
   <text x="35.622749" y="224.41655" fill="#d99414" font-family="'Merriweather 120pt'" font-size="88.194px" letter-spacing="5.2917px" opacity=".99" stroke-linejoin="bevel" style="font-variant-caps:normal;font-variant-east-asian:normal;font-variant-ligatures:normal;font-variant-numeric:normal;line-height:0" xml:space="preserve"><tspan x="35.622749" y="224.41655" dx="0" fill="#d99414" font-family="'Merriweather 120pt'" font-size="88.194px" letter-spacing="5.2917px" stroke="#d99414" stroke-width=".8" style="font-variant-caps:normal;font-variant-east-asian:normal;font-variant-ligatures:normal;font-variant-numeric:normal;line-height:0">ou<tspan fill="#ffffff" stroke="#ffffff">wis</tspan></tspan></text>
  </g>
 </g>
</svg>
